<svg version="1.1" viewBox="0 0 287.5 131.8" xmlns="http://www.w3.org/2000/svg"><g transform="matrix(1.333 0 0 -1.333 -1.206 518.4)"><g><path d="m30.34 348.8h177v-0.75h-177z" fill="#9a9a9a"/><path d="m30.34 348h177v-0.75h-177z" fill="#eee"/><path d="m206.6 348v-0.75h0.75v1.5" fill="#eee"/><path d="m30.34 348.8v-1.5l0.75 0.75v0.75" fill="#9a9a9a"/><path d="m30.34 300.8h177v-0.75h-177z" fill="#9a9a9a"/><path d="m30.34 300h177v-0.75h-177z" fill="#eee"/><path d="m206.6 300v-0.75h0.75v1.5" fill="#eee"/><path d="m30.34 300.8v-1.5l0.75 0.75v0.75" fill="#9a9a9a"/><g fill="#000000" font-family="Iosevka" stroke-width=".75"><g font-size="7.5px"><text transform="scale(1,-1)" x="0.34200001" y="-382.5"><tspan x="0.34200001 4.092 7.8419995 11.592 15.341999" y="-382.5" stroke-width=".75">Lemma</tspan></text><text transform="scale(1,-1)" x="22.841999" y="-382.5"><tspan x="22.841999 26.591999 30.341999 34.091999 37.841999 41.591999 45.341999" y="-382.5" stroke-width=".75">rev_rev</tspan></text><text transform="scale(1,-1)" x="52.841999" y="-382.5"><tspan x="52.841999" y="-382.5" stroke-width=".75">{</tspan></text><text transform="scale(1,-1)" x="56.591999" y="-382.5"><tspan x="56.591999" y="-382.5" stroke-width=".75">A</tspan></text><text transform="scale(1,-1)" x="60.341999" y="-382.5"><tspan x="60.341999 64.091995 67.841995" y="-382.5" stroke-width=".75">} (</tspan></text><text transform="scale(1,-1)" x="71.591995" y="-382.5"><tspan x="71.591995" y="-382.5" stroke-width=".75">l</tspan></text><text transform="scale(1,-1)" x="75.341995" y="-382.5"><tspan x="75.341995 79.091995 82.841995 86.591995 90.341995 94.091995 97.841995 101.592 105.342 109.092 112.842 116.592 120.342 124.092 127.842 131.592 135.342 139.092 142.842 146.592 150.342 154.092 157.842 161.592 165.342 169.092 172.842 176.592 180.342 184.092 187.842 191.592 195.342 199.092 202.842 206.592 210.342 214.092" y="-382.5" stroke-width=".75">: list A) : List.rev (List.rev l) = l.</tspan></text><text transform="scale(1,-1)" x="0.34200001" y="-374.25"><tspan x="0.34200001 4.092 7.8419995 11.592 15.341999" y="-374.25" stroke-width=".75">Proof</tspan></text><text transform="scale(1,-1)" x="19.091999" y="-374.25"><tspan x="19.091999" y="-374.25" stroke-width=".75">.</tspan></text><text transform="scale(1,-1)" x="7.8419995" y="-366"><tspan x="7.8419995 11.592 15.341999 19.091999 22.841999 26.591999 30.341999 34.091999 37.841999" y="-366" stroke-width=".75">induction</tspan></text><text transform="scale(1,-1)" x="45.341999" y="-366"><tspan x="45.341999 49.091999 52.841999" y="-366" stroke-width=".75">l; </tspan></text><text transform="scale(1,-1)" x="56.591999" y="-366"><tspan x="56.591999 60.341999 64.091995" y="-366" stroke-width=".75">cbn</tspan></text><text transform="scale(1,-1)" x="67.841995" y="-366"><tspan x="67.841995" y="-366" stroke-width=".75">.</tspan></text></g><g font-size="6.247px"><text transform="scale(1,-1)" x="30.341999" y="-353.25"><tspan x="30.341999" y="-353.25" stroke-width=".75">A</tspan></text><text transform="scale(1,-1)" x="33.459187" y="-353.25"><tspan x="33.459187" y="-353.25" stroke-width=".75">:</tspan></text><text transform="scale(1,-1)" x="36.576374" y="-353.25"><tspan x="36.576374 39.699444 42.822514 45.945583" y="-353.25" stroke-width=".75">Type</tspan></text><text transform="scale(1,-1)" x="30.341999" y="-338.25"><tspan x="30.341999 33.465069 36.588139 39.711208 42.834278 45.957348 49.080418 52.203487 55.326557" y="-338.25" stroke-width=".75">nil = nil</tspan></text><text transform="scale(1,-1)" x="30.341999" y="-325.5"><tspan x="30.341999" y="-325.5" stroke-width=".75">A</tspan></text><text transform="scale(1,-1)" x="33.459187" y="-325.5"><tspan x="33.459187" y="-325.5" stroke-width=".75">:</tspan></text><text transform="scale(1,-1)" x="36.576374" y="-325.5"><tspan x="36.576374 39.699444 42.822514 45.945583" y="-325.5" stroke-width=".75">Type</tspan></text><text transform="scale(1,-1)" x="30.341999" y="-318.75"><tspan x="30.341999" y="-318.75" stroke-width=".75">a</tspan></text><text transform="scale(1,-1)" x="33.459187" y="-318.75"><tspan x="33.459187" y="-318.75" stroke-width=".75">:</tspan></text><text transform="scale(1,-1)" x="36.576374" y="-318.75"><tspan x="36.576374" y="-318.75" stroke-width=".75">A</tspan></text><text transform="scale(1,-1)" x="30.341999" y="-312"><tspan x="30.341999" y="-312" stroke-width=".75">l</tspan></text><text transform="scale(1,-1)" x="33.459187" y="-312"><tspan x="33.459187" y="-312" stroke-width=".75">:</tspan></text><text transform="scale(1,-1)" x="36.576374" y="-312"><tspan x="36.576374 39.699444 42.822514 45.945583 49.068653 52.191723" y="-312" stroke-width=".75">list A</tspan></text><text transform="scale(1,-1)" x="30.341999" y="-305.25"><tspan x="30.341999 33.465069 36.588139" y="-305.25" stroke-width=".75">IHl</tspan></text><text transform="scale(1,-1)" x="39.70528" y="-305.25"><tspan x="39.70528" y="-305.25" stroke-width=".75">:</tspan></text><text transform="scale(1,-1)" x="42.822468" y="-305.25"><tspan x="42.822468 45.945538 49.068607 52.191677 55.314747 58.437817 61.560886 64.683952 67.807022 70.930092 74.053162 77.176231 80.299301 83.422371 86.545441" y="-305.25" stroke-width=".75">rev (rev l) = l</tspan></text><text transform="scale(1,-1)" x="30.341999" y="-291"><tspan x="30.341999 33.465069 36.588139 39.711208 42.834278 45.957348 49.080418 52.203487 55.326557 58.449627 61.572697 64.695763 67.818832 70.941902 74.064972 77.188042 80.311111 83.434181 86.557251 89.680321 92.803391 95.92646 99.04953 102.1726 105.29567 108.41875 111.54181 114.66488 117.78794 120.91102 124.03409 127.15716" y="-291" stroke-width=".75">rev (rev l a nil) = a l</tspan></text></g></g></g></g></svg>
