<?xml version="1.0" encoding="UTF-8" standalone="no"?>
<svg
   xmlns:dc="http://purl.org/dc/elements/1.1/"
   xmlns:cc="http://creativecommons.org/ns#"
   xmlns:rdf="http://www.w3.org/1999/02/22-rdf-syntax-ns#"
   xmlns:svg="http://www.w3.org/2000/svg"
   xmlns="http://www.w3.org/2000/svg"
   id="svg148"
   viewBox="0 0 287.5 131.8"
   version="1.1">
  <metadata
     id="metadata154">
    <rdf:RDF>
      <cc:Work
         rdf:about="">
        <dc:format>image/svg+xml</dc:format>
        <dc:type
           rdf:resource="http://purl.org/dc/dcmitype/StillImage" />
      </cc:Work>
    </rdf:RDF>
  </metadata>
  <defs
     id="defs152" />
  <g
     id="g146"
     transform="matrix(1.333,0,0,-1.333,-1.206,518.4)">
    <g
       id="g144">
      <path
         style="fill:#9a9a9a"
         id="path2"
         d="m 30.34,348.8 h 177 v -0.75 h -177 z" />
      <path
         style="fill:#eeeeee"
         id="path4"
         d="m 30.34,348 h 177 v -0.75 h -177 z" />
      <path
         style="fill:#eeeeee"
         id="path6"
         d="m 206.6,348 v -0.75 h 0.75 v 1.5" />
      <path
         style="fill:#9a9a9a"
         id="path8"
         d="m 30.34,348.8 v -1.5 l 0.75,0.75 v 0.75" />
      <path
         style="fill:#9a9a9a"
         id="path10"
         d="m 30.34,300.8 h 177 v -0.75 h -177 z" />
      <path
         style="fill:#eeeeee"
         id="path12"
         d="m 30.34,300 h 177 v -0.75 h -177 z" />
      <path
         style="fill:#eeeeee"
         id="path14"
         d="m 206.6,300 v -0.75 h 0.75 v 1.5" />
      <path
         style="fill:#9a9a9a"
         id="path16"
         d="m 30.34,300.8 v -1.5 l 0.75,0.75 v 0.75" />
      <g
         style="font-family:Iosevka;fill:#000000;stroke-width:0.75"
         id="g142">
        <g
           style="font-size:7.5px"
           id="g70"
           font-size="7.5px">
          <g
             id="text20"
             style=""
             transform="scale(1,-1)"
             aria-label="Lemma">
            <path
               id="path156"
               style="stroke-width:0.75"
               d="m 1.017,-382.5 h 2.685 v -0.54 H 1.617 v -4.9725 h -0.6 z" />
            <path
               id="path158"
               style="stroke-width:0.75"
               d="m 5.982,-382.44 q 0.255,0 0.51,-0.06 0.255,-0.0525 0.4725,-0.2025 0.2175,-0.1575 0.3375,-0.39 0.12,-0.24 0.135,-0.495 h -0.6 q -0.0075,0.195 -0.1425,0.3525 -0.135,0.15 -0.33,0.2025 -0.1875,0.0525 -0.3825,0.0525 -0.195,0 -0.3825,-0.0675 -0.18,-0.075 -0.3075,-0.225 -0.12,-0.1575 -0.165,-0.345 Q 5.082,-383.805 5.082,-384 v -0.2175 h 2.37 v -0.7575 q 0,-0.2475 -0.0525,-0.4875 -0.045,-0.24 -0.18,-0.45 -0.1275,-0.2175 -0.33,-0.36 -0.195,-0.15 -0.435,-0.2025 -0.24,-0.06 -0.4875,-0.06 -0.2475,0 -0.4875,0.06 -0.24,0.0525 -0.4425,0.2025 -0.195,0.1425 -0.33,0.36 -0.1275,0.21 -0.18,0.45 -0.045,0.24 -0.045,0.4875 V -384 q 0,0.2475 0.045,0.4875 0.0525,0.24 0.1875,0.4575 0.135,0.21 0.3375,0.36 0.2025,0.1425 0.4425,0.195 0.24,0.06 0.4875,0.06 z m -0.9,-2.3175 v -0.2175 q 0,-0.195 0.045,-0.3825 0.045,-0.1875 0.165,-0.3375 0.12,-0.1575 0.3,-0.225 0.1875,-0.075 0.375,-0.075 0.195,0 0.375,0.075 0.18,0.0675 0.3,0.225 0.12,0.15 0.165,0.3375 0.045,0.1875 0.045,0.3825 v 0.2175 z" />
            <path
               id="path160"
               style="stroke-width:0.75"
               d="m 8.1944995,-382.5 h 0.6 v -3.0225 q 0,-0.105 0.0225,-0.21 0.0225,-0.105 0.105,-0.18 0.0825,-0.0825 0.1875,-0.0825 0.105,0 0.18,0.0825 0.0825,0.075 0.105,0.18 0.0225,0.105 0.0225,0.21 V -382.5 H 10.017 v -3.0225 q 0,-0.105 0.0225,-0.21 0.0225,-0.105 0.0975,-0.18 0.0825,-0.0825 0.1875,-0.0825 0.1125,0 0.1875,0.0825 0.0825,0.075 0.105,0.18 0.0225,0.105 0.0225,0.21 v 3.0225 h 0.6 v -3.0225 q 0,-0.1725 -0.03,-0.3375 -0.0225,-0.1725 -0.105,-0.33 -0.075,-0.1575 -0.225,-0.2475 -0.15,-0.0975 -0.315,-0.0975 v 0 q -0.15,0 -0.285,0.0675 -0.1275,0.0675 -0.21,0.195 -0.075,0.12 -0.1125005,0.255 -0.045,-0.1425 -0.1275,-0.2625 -0.075,-0.12 -0.21,-0.1875 -0.135,-0.0675 -0.2775,-0.0675 v 0 q -0.12,0 -0.2325,0.045 -0.105,0.0375 -0.1875,0.1275 -0.075,0.0825 -0.1275,0.18 v -0.2925 h -0.6 z" />
            <path
               id="path162"
               style="stroke-width:0.75"
               d="m 11.9445,-382.5 h 0.6 v -3.0225 q 0,-0.105 0.0225,-0.21 0.0225,-0.105 0.105,-0.18 0.0825,-0.0825 0.1875,-0.0825 0.105,0 0.18,0.0825 0.0825,0.075 0.105,0.18 0.0225,0.105 0.0225,0.21 v 3.0225 h 0.6 v -3.0225 q 0,-0.105 0.0225,-0.21 0.0225,-0.105 0.0975,-0.18 0.0825,-0.0825 0.1875,-0.0825 0.1125,0 0.1875,0.0825 0.0825,0.075 0.105,0.18 0.0225,0.105 0.0225,0.21 v 3.0225 h 0.6 v -3.0225 q 0,-0.1725 -0.03,-0.3375 -0.0225,-0.1725 -0.105,-0.33 -0.075,-0.1575 -0.225,-0.2475 -0.15,-0.0975 -0.315,-0.0975 v 0 q -0.15,0 -0.285,0.0675 -0.1275,0.0675 -0.21,0.195 -0.075,0.12 -0.1125,0.255 -0.045,-0.1425 -0.1275,-0.2625 -0.075,-0.12 -0.21,-0.1875 -0.135,-0.0675 -0.2775,-0.0675 v 0 q -0.12,0 -0.2325,0.045 -0.105,0.0375 -0.1875,0.1275 -0.075,0.0825 -0.1275,0.18 v -0.2925 h -0.6 z" />
            <path
               id="path164"
               style="stroke-width:0.75"
               d="m 16.856999,-382.44 q 0.24,0 0.4725,-0.0675 0.24,-0.075 0.4275,-0.24 0.1875,-0.165 0.285,-0.3825 v 0.63 h 0.6 v -2.7225 q 0,-0.225 -0.06,-0.435 -0.0525,-0.2175 -0.195,-0.39 -0.135,-0.18 -0.33,-0.2925 -0.195,-0.1125 -0.4125,-0.15 -0.2175,-0.045 -0.435,-0.045 -0.2625,0 -0.5175,0.06 -0.255,0.0525 -0.4725,0.21 -0.21,0.1575 -0.33,0.3975 -0.1125,0.24 -0.1125,0.5025 v 0 h 0.6 q 0,-0.195 0.1275,-0.3525 0.1275,-0.165 0.315,-0.2175 0.195,-0.06 0.39,-0.06 0.21,0 0.4125,0.0825 0.21,0.075 0.315,0.2775 0.105,0.195 0.105,0.4125 v 0.3825 h -0.6825 q -0.2325,0 -0.4575,0.03 -0.225,0.03 -0.4425,0.12 -0.2175,0.0825 -0.3975,0.2325 -0.1725,0.15 -0.255,0.375 -0.075,0.2175 -0.075,0.45 0,0.2325 0.06,0.4575 0.0675,0.225 0.225,0.405 0.1575,0.18 0.3825,0.255 0.225,0.075 0.4575,0.075 z m 0.225,-0.54 q -0.1875,0 -0.375,-0.06 -0.18,-0.0675 -0.2775,-0.24 -0.0975,-0.1725 -0.0975,-0.36 0,-0.135 0.06,-0.2625 0.06,-0.1275 0.1725,-0.2025 0.12,-0.0825 0.2475,-0.12 0.135,-0.045 0.27,-0.06 0.1425,-0.015 0.2775,-0.015 h 0.6825 v 0.45 q 0,0.18 -0.0675,0.36 -0.06,0.1725 -0.21,0.2925 -0.1425,0.12 -0.3225,0.1725 -0.1725,0.045 -0.36,0.045 z" />
          </g>
          <g
             id="text24"
             style=""
             transform="scale(1,-1)"
             aria-label="rev_rev">
            <path
               id="path167"
               style="stroke-width:0.75"
               d="m 23.741999,-382.5 h 0.6 v -2.1075 q 0,-0.18 0.015,-0.36 0.0225,-0.18 0.0675,-0.3525 0.0525,-0.18 0.15,-0.3375 0.0975,-0.1575 0.255,-0.2475 0.165,-0.09 0.345,-0.09 0.1125,0 0.2175,0.045 0.105,0.045 0.165,0.1425 0.06,0.0975 0.075,0.21 0.0225,0.105 0.0225,0.2175 h 0.6 q 0,-0.21 -0.0375,-0.42 -0.0375,-0.21 -0.1575,-0.39 -0.12,-0.18 -0.3225,-0.2625 -0.195,-0.0825 -0.405,-0.0825 -0.1875,0 -0.3675,0.075 -0.1725,0.075 -0.3,0.225 -0.12,0.15 -0.2025,0.3225 -0.075,0.1725 -0.12,0.3525 v -0.915 h -0.6 z" />
            <path
               id="path169"
               style="stroke-width:0.75"
               d="m 28.481999,-382.44 q 0.255,0 0.51,-0.06 0.255,-0.0525 0.4725,-0.2025 0.2175,-0.1575 0.3375,-0.39 0.12,-0.24 0.135,-0.495 h -0.6 q -0.0075,0.195 -0.1425,0.3525 -0.135,0.15 -0.33,0.2025 -0.1875,0.0525 -0.3825,0.0525 -0.195,0 -0.3825,-0.0675 -0.18,-0.075 -0.3075,-0.225 -0.12,-0.1575 -0.165,-0.345 -0.045,-0.1875 -0.045,-0.3825 v -0.2175 h 2.37 v -0.7575 q 0,-0.2475 -0.0525,-0.4875 -0.045,-0.24 -0.18,-0.45 -0.1275,-0.2175 -0.33,-0.36 -0.195,-0.15 -0.435,-0.2025 -0.24,-0.06 -0.4875,-0.06 -0.2475,0 -0.4875,0.06 -0.24,0.0525 -0.4425,0.2025 -0.195,0.1425 -0.33,0.36 -0.1275,0.21 -0.18,0.45 -0.045,0.24 -0.045,0.4875 V -384 q 0,0.2475 0.045,0.4875 0.0525,0.24 0.1875,0.4575 0.135,0.21 0.3375,0.36 0.2025,0.1425 0.4425,0.195 0.24,0.06 0.4875,0.06 z m -0.9,-2.3175 v -0.2175 q 0,-0.195 0.045,-0.3825 0.045,-0.1875 0.165,-0.3375 0.12,-0.1575 0.3,-0.225 0.1875,-0.075 0.375,-0.075 0.195,0 0.375,0.075 0.18,0.0675 0.3,0.225 0.12,0.15 0.165,0.3375 0.045,0.1875 0.045,0.3825 v 0.2175 z" />
            <path
               id="path171"
               style="stroke-width:0.75"
               d="m 31.871999,-382.5 h 0.69 l 1.215,-3.975 h -0.63 l -0.7575,2.6475 q -0.045,0.1575 -0.09,0.3225 -0.0375,0.1575 -0.0825,0.315 -0.045,-0.1575 -0.09,-0.315 -0.0375,-0.165 -0.0825,-0.3225 l -0.75,-2.6475 h -0.6375 z" />
            <path
               id="path173"
               style="stroke-width:0.75"
               d="m 34.541999,-381.96 h 2.85 v -0.54 h -2.85 z" />
            <path
               id="path175"
               style="stroke-width:0.75"
               d="m 38.741999,-382.5 h 0.6 v -2.1075 q 0,-0.18 0.015,-0.36 0.0225,-0.18 0.0675,-0.3525 0.0525,-0.18 0.15,-0.3375 0.0975,-0.1575 0.255,-0.2475 0.165,-0.09 0.345,-0.09 0.1125,0 0.2175,0.045 0.105,0.045 0.165,0.1425 0.06,0.0975 0.075,0.21 0.0225,0.105 0.0225,0.2175 h 0.6 q 0,-0.21 -0.0375,-0.42 -0.0375,-0.21 -0.1575,-0.39 -0.12,-0.18 -0.3225,-0.2625 -0.195,-0.0825 -0.405,-0.0825 -0.1875,0 -0.3675,0.075 -0.1725,0.075 -0.3,0.225 -0.12,0.15 -0.2025,0.3225 -0.075,0.1725 -0.12,0.3525 v -0.915 h -0.6 z" />
            <path
               id="path177"
               style="stroke-width:0.75"
               d="m 43.481999,-382.44 q 0.255,0 0.51,-0.06 0.255,-0.0525 0.4725,-0.2025 0.2175,-0.1575 0.3375,-0.39 0.12,-0.24 0.135,-0.495 h -0.6 q -0.0075,0.195 -0.1425,0.3525 -0.135,0.15 -0.33,0.2025 -0.1875,0.0525 -0.3825,0.0525 -0.195,0 -0.3825,-0.0675 -0.18,-0.075 -0.3075,-0.225 -0.12,-0.1575 -0.165,-0.345 -0.045,-0.1875 -0.045,-0.3825 v -0.2175 h 2.37 v -0.7575 q 0,-0.2475 -0.0525,-0.4875 -0.045,-0.24 -0.18,-0.45 -0.1275,-0.2175 -0.33,-0.36 -0.195,-0.15 -0.435,-0.2025 -0.24,-0.06 -0.4875,-0.06 -0.2475,0 -0.4875,0.06 -0.24,0.0525 -0.4425,0.2025 -0.195,0.1425 -0.33,0.36 -0.1275,0.21 -0.18,0.45 -0.045,0.24 -0.045,0.4875 V -384 q 0,0.2475 0.045,0.4875 0.0525,0.24 0.1875,0.4575 0.135,0.21 0.3375,0.36 0.2025,0.1425 0.4425,0.195 0.24,0.06 0.4875,0.06 z m -0.9,-2.3175 v -0.2175 q 0,-0.195 0.045,-0.3825 0.045,-0.1875 0.165,-0.3375 0.12,-0.1575 0.3,-0.225 0.1875,-0.075 0.375,-0.075 0.195,0 0.375,0.075 0.18,0.0675 0.3,0.225 0.12,0.15 0.165,0.3375 0.045,0.1875 0.045,0.3825 v 0.2175 z" />
            <path
               id="path179"
               style="stroke-width:0.75"
               d="m 46.871999,-382.5 h 0.69 l 1.215,-3.975 h -0.63 l -0.7575,2.6475 q -0.045,0.1575 -0.09,0.3225 -0.0375,0.1575 -0.0825,0.315 -0.045,-0.1575 -0.09,-0.315 -0.0375,-0.165 -0.0825,-0.3225 l -0.75,-2.6475 h -0.6375 z" />
          </g>
          <g
             id="text28"
             style=""
             transform="scale(1,-1)"
             aria-label="{">
            <path
               id="path182"
               style="stroke-width:0.75"
               d="m 55.999499,-381.3525 v -0.54 q -0.165,0 -0.33,-0.0225 -0.165,-0.015 -0.3225,-0.0675 -0.1575,-0.0525 -0.3,-0.15 -0.135,-0.09 -0.21,-0.24 -0.075,-0.15 -0.075,-0.315 0,-0.1725 0.075,-0.33 0.075,-0.1575 0.15,-0.3075 0.075,-0.1575 0.1125,-0.3225 0.045,-0.1725 0.045,-0.345 0,-0.21 -0.06,-0.4125 -0.0525,-0.2025 -0.1875,-0.3675 -0.135,-0.165 -0.315,-0.2775 0.18,-0.1125 0.315,-0.2775 0.135,-0.165 0.1875,-0.3675 0.06,-0.21 0.06,-0.42 0,-0.1725 -0.045,-0.3375 -0.0375,-0.165 -0.1125,-0.315 -0.075,-0.1575 -0.15,-0.315 -0.075,-0.1575 -0.075,-0.33 0,-0.165 0.075,-0.315 0.075,-0.1575 0.21,-0.2475 0.1425,-0.0975 0.3,-0.1425 0.1575,-0.0525 0.3225,-0.0675 0.165,-0.0225 0.33,-0.0225 v -0.54 q -0.255,0 -0.51,0.0375 -0.255,0.03 -0.495,0.1275 -0.24,0.09 -0.4425,0.2625 -0.195,0.165 -0.2925,0.4125 -0.0975,0.24 -0.0975,0.495 0,0.1725 0.0375,0.3375 0.045,0.165 0.12,0.3225 0.0825,0.15 0.15,0.3075 0.075,0.1575 0.075,0.33 0,0.195 -0.0975,0.3675 -0.09,0.1725 -0.2625,0.27 -0.1725,0.09 -0.3675,0.1275 -0.1875,0.03 -0.3825,0.03 v 0.54 q 0.195,0 0.3825,0.0375 0.195,0.03 0.3675,0.1275 0.1725,0.09 0.2625,0.2625 0.0975,0.1725 0.0975,0.36 0,0.1725 -0.075,0.3375 -0.0675,0.1575 -0.15,0.3075 -0.075,0.15 -0.12,0.3225 -0.0375,0.165 -0.0375,0.3375 0,0.255 0.0975,0.495 0.0975,0.2475 0.2925,0.4125 0.2025,0.1725 0.4425,0.2625 0.24,0.0975 0.495,0.1275 0.255,0.0375 0.51,0.0375 z" />
          </g>
          <g
             id="text32"
             style=""
             transform="scale(1,-1)"
             aria-label="A">
            <path
               id="path185"
               style="stroke-width:0.75"
               d="m 56.906999,-382.5 h 0.615 l 0.3,-1.4475 h 1.29 l 0.3,1.4475 h 0.615 l -1.215,-5.5125 h -0.69 z m 2.0925,-1.9875 h -1.065 l 0.345,-1.6875 q 0.045,-0.2325 0.09,-0.465 0.0525,-0.24 0.0975,-0.4725 0.045,0.2325 0.09,0.4725 0.0525,0.2325 0.0975,0.465 z" />
          </g>
          <g
             id="text36"
             style=""
             transform="scale(1,-1)"
             aria-label="} (">
            <path
               id="path188"
               style="stroke-width:0.75"
               d="m 60.934499,-381.3525 q 0.255,0 0.51,-0.0375 0.255,-0.03 0.495,-0.1275 0.24,-0.09 0.4425,-0.2625 0.2025,-0.165 0.2925,-0.4125 0.0975,-0.24 0.0975,-0.495 0,-0.1725 -0.045,-0.3375 -0.0375,-0.1725 -0.1125,-0.3225 -0.075,-0.15 -0.15,-0.3075 -0.075,-0.165 -0.075,-0.3375 0,-0.1875 0.0975,-0.36 0.0975,-0.1725 0.27,-0.2625 0.1725,-0.0975 0.36,-0.1275 0.1875,-0.0375 0.3825,-0.0375 v -0.54 q -0.195,0 -0.3825,-0.03 -0.1875,-0.0375 -0.36,-0.1275 -0.1725,-0.0975 -0.27,-0.27 -0.0975,-0.1725 -0.0975,-0.3675 0,-0.1725 0.075,-0.33 0.075,-0.1575 0.15,-0.3075 0.075,-0.1575 0.1125,-0.3225 0.045,-0.165 0.045,-0.3375 0,-0.255 -0.0975,-0.495 -0.09,-0.2475 -0.2925,-0.4125 -0.2025,-0.1725 -0.4425,-0.2625 -0.24,-0.0975 -0.495,-0.1275 -0.255,-0.0375 -0.51,-0.0375 v 0.54 q 0.165,0 0.33,0.0225 0.165,0.015 0.3225,0.0675 0.1575,0.045 0.2925,0.1425 0.1425,0.09 0.2175,0.2475 0.075,0.15 0.075,0.315 0,0.1725 -0.075,0.33 -0.0675,0.1575 -0.15,0.315 -0.075,0.15 -0.12,0.315 -0.0375,0.165 -0.0375,0.3375 0,0.21 0.0525,0.42 0.06,0.2025 0.195,0.3675 0.135,0.165 0.315,0.2775 -0.18,0.1125 -0.315,0.2775 -0.135,0.165 -0.195,0.3675 -0.0525,0.2025 -0.0525,0.4125 0,0.1725 0.0375,0.345 0.045,0.165 0.12,0.3225 0.0825,0.15 0.15,0.3075 0.075,0.1575 0.075,0.33 0,0.165 -0.075,0.315 -0.075,0.15 -0.2175,0.24 -0.135,0.0975 -0.2925,0.15 -0.1575,0.0525 -0.3225,0.0675 -0.165,0.0225 -0.33,0.0225 z" />
            <path
               id="path190"
               style="stroke-width:0.75"
               d="m 70.856995,-381.2925 0.285,-0.4725 q -0.42,-0.24 -0.7575,-0.6 -0.33,-0.36 -0.54,-0.8025 -0.21,-0.4425 -0.3,-0.9225 -0.0825,-0.48 -0.0825,-0.96 0,-0.4875 0.0825,-0.9675 0.09,-0.48 0.3,-0.915 0.21,-0.4425 0.54,-0.8025 0.3375,-0.36 0.7575,-0.6 l -0.285,-0.4725 q -0.495,0.2625 -0.8925,0.675 -0.39,0.405 -0.645,0.9075 -0.2475,0.5025 -0.3525,1.0575 -0.105,0.555 -0.105,1.1175 0,0.5625 0.105,1.1175 0.105,0.5475 0.3525,1.0575 0.255,0.5025 0.645,0.9075 0.3975,0.4125 0.8925,0.675 z" />
          </g>
          <g
             id="text40"
             style=""
             transform="scale(1,-1)"
             aria-label="l">
            <path
               id="path193"
               style="stroke-width:0.75"
               d="m 72.154495,-382.5 h 2.625 v -0.54 h -0.96 v -4.9725 h -1.56 v 0.54 h 0.96 v 4.4325 h -1.065 z" />
          </g>
          <g
             id="text44"
             style=""
             transform="scale(1,-1)"
             aria-label=": list A) : List.rev (List.rev l) = l.">
            <path
               id="path196"
               style="stroke-width:0.75"
               d="m 77.216995,-385.365 q 0.1575,0 0.3,-0.0675 0.15,-0.0675 0.2175,-0.21 0.0675,-0.15 0.0675,-0.3075 0,-0.1575 -0.0675,-0.3 -0.0675,-0.15 -0.2175,-0.2175 -0.1425,-0.0675 -0.3,-0.0675 -0.1575,0 -0.3075,0.0675 -0.1425,0.0675 -0.21,0.2175 -0.0675,0.1425 -0.0675,0.3 0,0.1575 0.0675,0.3075 0.0675,0.1425 0.21,0.21 0.15,0.0675 0.3075,0.0675 z m 0,2.925 q 0.1575,0 0.3,-0.0675 0.15,-0.0675 0.2175,-0.21 0.0675,-0.15 0.0675,-0.3075 0,-0.1575 -0.0675,-0.3 -0.0675,-0.15 -0.2175,-0.2175 -0.1425,-0.0675 -0.3,-0.0675 -0.1575,0 -0.3075,0.0675 -0.1425,0.0675 -0.21,0.2175 -0.0675,0.1425 -0.0675,0.3 0,0.1575 0.0675,0.3075 0.0675,0.1425 0.21,0.21 0.15,0.0675 0.3075,0.0675 z" />
            <path
               id="path198"
               style="stroke-width:0.75"
               d="m 83.404495,-382.5 h 2.625 v -0.54 h -0.96 v -4.9725 h -1.56 v 0.54 h 0.96 v 4.4325 h -1.065 z" />
            <path
               id="path200"
               style="stroke-width:0.75"
               d="m 87.154495,-382.5 h 2.625 v -0.54 h -0.96 v -3.435 h -1.56 v 0.54 h 0.96 v 2.895 h -1.065 z m 1.3125,-4.6725 q 0.1275,0 0.24,-0.0525 0.12,-0.0525 0.1725,-0.165 0.06,-0.12 0.06,-0.2475 0,-0.1275 -0.06,-0.24 -0.0525,-0.12 -0.1725,-0.1725 -0.1125,-0.06 -0.24,-0.06 -0.1275,0 -0.2475,0.06 -0.1125,0.0525 -0.165,0.1725 -0.0525,0.1125 -0.0525,0.24 0,0.1275 0.0525,0.2475 0.0525,0.1125 0.165,0.165 0.12,0.0525 0.2475,0.0525 z" />
            <path
               id="path202"
               style="stroke-width:0.75"
               d="m 92.201995,-382.44 q 0.2625,0 0.525,-0.0525 0.2625,-0.0525 0.4875,-0.195 0.225,-0.1425 0.3525,-0.375 0.135,-0.24 0.135,-0.5025 0,-0.18 -0.0675,-0.3525 -0.0675,-0.1725 -0.195,-0.3 -0.12,-0.135 -0.2775,-0.225 -0.1575,-0.09 -0.33,-0.15 -0.165,-0.06 -0.3375,-0.105 -0.1725,-0.0525 -0.345,-0.0975 -0.1725,-0.0525 -0.345,-0.1125 -0.1725,-0.06 -0.3,-0.2025 -0.1275,-0.1425 -0.1275,-0.3225 0,-0.1425 0.0825,-0.2625 0.0825,-0.12 0.21,-0.1875 0.1275,-0.0675 0.2625,-0.09 0.1425,-0.0225 0.285,-0.0225 0.1425,0 0.2775,0.0225 0.135,0.0225 0.255,0.0825 0.1275,0.06 0.21,0.18 0.0825,0.1125 0.0825,0.255 h 0.6 q 0,-0.255 -0.1275,-0.48 -0.12,-0.225 -0.3375,-0.36 -0.21,-0.1425 -0.4575,-0.1875 -0.2475,-0.0525 -0.5025,-0.0525 -0.255,0 -0.51,0.0525 -0.2475,0.0525 -0.465,0.2025 -0.2175,0.1425 -0.3375,0.3825 -0.12,0.2325 -0.12,0.4875 0,0.18 0.0675,0.3525 0.0675,0.165 0.1875,0.3 0.1275,0.135 0.285,0.225 0.1575,0.09 0.3225,0.15 0.1725,0.0525 0.345,0.105 0.1725,0.0525 0.345,0.0975 0.1725,0.045 0.345,0.105 0.1725,0.06 0.3,0.2025 0.1275,0.1425 0.1275,0.3225 0,0.15 -0.0975,0.2775 -0.09,0.12 -0.225,0.1875 -0.135,0.06 -0.285,0.0825 -0.15,0.0225 -0.3,0.0225 -0.1425,0 -0.285,-0.0225 -0.1425,-0.0225 -0.2775,-0.0825 -0.135,-0.06 -0.2325,-0.18 -0.09,-0.1275 -0.09,-0.27 h -0.6 q 0,0.2625 0.135,0.495 0.135,0.225 0.36,0.3675 0.225,0.135 0.48,0.18 0.255,0.0525 0.51,0.0525 z" />
            <path
               id="path204"
               style="stroke-width:0.75"
               d="m 96.521995,-382.44 q 0.2475,0 0.4875,-0.0825 0.24,-0.0825 0.405,-0.27 0.1725,-0.195 0.2475,-0.435 0.075,-0.2475 0.075,-0.495 0,-0.0375 0,-0.0675 h -0.6 v 0.0375 q 0,0.1425 -0.03,0.2775 -0.03,0.135 -0.1125,0.255 -0.075,0.12 -0.21,0.18 -0.1275,0.06 -0.2625,0.06 -0.165,0 -0.3075,-0.09 -0.1425,-0.0975 -0.21,-0.2475 -0.0675,-0.1575 -0.09,-0.315 -0.0225,-0.165 -0.0225,-0.33 v -1.9725 h 1.2075 v -0.54 h -1.2075 v -1.5375 h -0.6 v 1.5375 h -0.8175 v 0.54 h 0.8175 v 1.9725 q 0,0.225 0.03,0.45 0.0375,0.2175 0.1275,0.42 0.0975,0.2025 0.255,0.36 0.165,0.1575 0.375,0.225 0.2175,0.0675 0.4425,0.0675 z" />
            <path
               id="path206"
               style="stroke-width:0.75"
               d="m 101.907,-382.5 h 0.615 l 0.3,-1.4475 h 1.29 l 0.3,1.4475 h 0.615 l -1.215,-5.5125 h -0.69 z m 2.0925,-1.9875 h -1.065 l 0.345,-1.6875 q 0.045,-0.2325 0.09,-0.465 0.0525,-0.24 0.0975,-0.4725 0.045,0.2325 0.09,0.4725 0.0525,0.2325 0.0975,0.465 z" />
            <path
               id="path208"
               style="stroke-width:0.75"
               d="m 106.077,-381.2925 q 0.495,-0.2625 0.885,-0.675 0.3975,-0.405 0.6525,-0.9075 0.255,-0.51 0.3525,-1.0575 0.105,-0.555 0.105,-1.1175 0,-0.5625 -0.105,-1.1175 -0.0975,-0.555 -0.3525,-1.0575 -0.255,-0.5025 -0.6525,-0.9075 -0.39,-0.4125 -0.885,-0.675 l -0.285,0.4725 q 0.4275,0.24 0.7575,0.6 0.3375,0.36 0.54,0.8025 0.21,0.435 0.2925,0.915 0.09,0.48 0.09,0.9675 0,0.48 -0.09,0.96 -0.0825,0.48 -0.2925,0.9225 -0.2025,0.4425 -0.54,0.8025 -0.33,0.36 -0.7575,0.6 z" />
            <path
               id="path210"
               style="stroke-width:0.75"
               d="m 114.717,-385.365 q 0.1575,0 0.3,-0.0675 0.15,-0.0675 0.2175,-0.21 0.0675,-0.15 0.0675,-0.3075 0,-0.1575 -0.0675,-0.3 -0.0675,-0.15 -0.2175,-0.2175 -0.1425,-0.0675 -0.3,-0.0675 -0.1575,0 -0.3075,0.0675 -0.1425,0.0675 -0.21,0.2175 -0.0675,0.1425 -0.0675,0.3 0,0.1575 0.0675,0.3075 0.0675,0.1425 0.21,0.21 0.15,0.0675 0.3075,0.0675 z m 0,2.925 q 0.1575,0 0.3,-0.0675 0.15,-0.0675 0.2175,-0.21 0.0675,-0.15 0.0675,-0.3075 0,-0.1575 -0.0675,-0.3 -0.0675,-0.15 -0.2175,-0.2175 -0.1425,-0.0675 -0.3,-0.0675 -0.1575,0 -0.3075,0.0675 -0.1425,0.0675 -0.21,0.2175 -0.0675,0.1425 -0.0675,0.3 0,0.1575 0.0675,0.3075 0.0675,0.1425 0.21,0.21 0.15,0.0675 0.3075,0.0675 z" />
            <path
               id="path212"
               style="stroke-width:0.75"
               d="m 121.017,-382.5 h 2.685 v -0.54 h -2.085 v -4.9725 h -0.6 z" />
            <path
               id="path214"
               style="stroke-width:0.75"
               d="m 124.6545,-382.5 h 2.625 v -0.54 h -0.96 v -3.435 h -1.56 v 0.54 h 0.96 v 2.895 h -1.065 z m 1.3125,-4.6725 q 0.1275,0 0.24,-0.0525 0.12,-0.0525 0.1725,-0.165 0.06,-0.12 0.06,-0.2475 0,-0.1275 -0.06,-0.24 -0.0525,-0.12 -0.1725,-0.1725 -0.1125,-0.06 -0.24,-0.06 -0.1275,0 -0.2475,0.06 -0.1125,0.0525 -0.165,0.1725 -0.0525,0.1125 -0.0525,0.24 0,0.1275 0.0525,0.2475 0.0525,0.1125 0.165,0.165 0.12,0.0525 0.2475,0.0525 z" />
            <path
               id="path216"
               style="stroke-width:0.75"
               d="m 129.702,-382.44 q 0.2625,0 0.525,-0.0525 0.2625,-0.0525 0.4875,-0.195 0.225,-0.1425 0.3525,-0.375 0.135,-0.24 0.135,-0.5025 0,-0.18 -0.0675,-0.3525 -0.0675,-0.1725 -0.195,-0.3 -0.12,-0.135 -0.2775,-0.225 -0.1575,-0.09 -0.33,-0.15 -0.165,-0.06 -0.3375,-0.105 -0.1725,-0.0525 -0.345,-0.0975 -0.1725,-0.0525 -0.345,-0.1125 -0.1725,-0.06 -0.3,-0.2025 -0.1275,-0.1425 -0.1275,-0.3225 0,-0.1425 0.0825,-0.2625 0.0825,-0.12 0.21,-0.1875 0.1275,-0.0675 0.2625,-0.09 0.1425,-0.0225 0.285,-0.0225 0.1425,0 0.2775,0.0225 0.135,0.0225 0.255,0.0825 0.1275,0.06 0.21,0.18 0.0825,0.1125 0.0825,0.255 h 0.6 q 0,-0.255 -0.1275,-0.48 -0.12,-0.225 -0.3375,-0.36 -0.21,-0.1425 -0.4575,-0.1875 -0.2475,-0.0525 -0.5025,-0.0525 -0.255,0 -0.51,0.0525 -0.2475,0.0525 -0.465,0.2025 -0.2175,0.1425 -0.3375,0.3825 -0.12,0.2325 -0.12,0.4875 0,0.18 0.0675,0.3525 0.0675,0.165 0.1875,0.3 0.1275,0.135 0.285,0.225 0.1575,0.09 0.3225,0.15 0.1725,0.0525 0.345,0.105 0.1725,0.0525 0.345,0.0975 0.1725,0.045 0.345,0.105 0.1725,0.06 0.3,0.2025 0.1275,0.1425 0.1275,0.3225 0,0.15 -0.0975,0.2775 -0.09,0.12 -0.225,0.1875 -0.135,0.06 -0.285,0.0825 -0.15,0.0225 -0.3,0.0225 -0.1425,0 -0.285,-0.0225 -0.1425,-0.0225 -0.2775,-0.0825 -0.135,-0.06 -0.2325,-0.18 -0.09,-0.1275 -0.09,-0.27 h -0.6 q 0,0.2625 0.135,0.495 0.135,0.225 0.36,0.3675 0.225,0.135 0.48,0.18 0.255,0.0525 0.51,0.0525 z" />
            <path
               id="path218"
               style="stroke-width:0.75"
               d="m 134.022,-382.44 q 0.2475,0 0.4875,-0.0825 0.24,-0.0825 0.405,-0.27 0.1725,-0.195 0.2475,-0.435 0.075,-0.2475 0.075,-0.495 0,-0.0375 0,-0.0675 h -0.6 v 0.0375 q 0,0.1425 -0.03,0.2775 -0.03,0.135 -0.1125,0.255 -0.075,0.12 -0.21,0.18 -0.1275,0.06 -0.2625,0.06 -0.165,0 -0.3075,-0.09 -0.1425,-0.0975 -0.21,-0.2475 -0.0675,-0.1575 -0.09,-0.315 -0.0225,-0.165 -0.0225,-0.33 v -1.9725 h 1.2075 v -0.54 h -1.2075 v -1.5375 h -0.6 v 1.5375 h -0.8175 v 0.54 h 0.8175 v 1.9725 q 0,0.225 0.03,0.45 0.0375,0.2175 0.1275,0.42 0.0975,0.2025 0.255,0.36 0.165,0.1575 0.375,0.225 0.2175,0.0675 0.4425,0.0675 z" />
            <path
               id="path220"
               style="stroke-width:0.75"
               d="m 137.217,-382.44 q 0.1575,0 0.3,-0.0675 0.15,-0.0675 0.2175,-0.21 0.0675,-0.15 0.0675,-0.3075 0,-0.1575 -0.0675,-0.3 -0.0675,-0.15 -0.2175,-0.2175 -0.1425,-0.0675 -0.3,-0.0675 -0.1575,0 -0.3075,0.0675 -0.1425,0.0675 -0.21,0.2175 -0.0675,0.1425 -0.0675,0.3 0,0.1575 0.0675,0.3075 0.0675,0.1425 0.21,0.21 0.15,0.0675 0.3075,0.0675 z" />
            <path
               id="path222"
               style="stroke-width:0.75"
               d="m 139.992,-382.5 h 0.6 v -2.1075 q 0,-0.18 0.015,-0.36 0.0225,-0.18 0.0675,-0.3525 0.0525,-0.18 0.15,-0.3375 0.0975,-0.1575 0.255,-0.2475 0.165,-0.09 0.345,-0.09 0.1125,0 0.2175,0.045 0.105,0.045 0.165,0.1425 0.06,0.0975 0.075,0.21 0.0225,0.105 0.0225,0.2175 h 0.6 q 0,-0.21 -0.0375,-0.42 -0.0375,-0.21 -0.1575,-0.39 -0.12,-0.18 -0.3225,-0.2625 -0.195,-0.0825 -0.405,-0.0825 -0.1875,0 -0.3675,0.075 -0.1725,0.075 -0.3,0.225 -0.12,0.15 -0.2025,0.3225 -0.075,0.1725 -0.12,0.3525 v -0.915 h -0.6 z" />
            <path
               id="path224"
               style="stroke-width:0.75"
               d="m 144.732,-382.44 q 0.255,0 0.51,-0.06 0.255,-0.0525 0.4725,-0.2025 0.2175,-0.1575 0.3375,-0.39 0.12,-0.24 0.135,-0.495 h -0.6 q -0.007,0.195 -0.1425,0.3525 -0.135,0.15 -0.33,0.2025 -0.1875,0.0525 -0.3825,0.0525 -0.195,0 -0.3825,-0.0675 -0.18,-0.075 -0.3075,-0.225 -0.12,-0.1575 -0.165,-0.345 -0.045,-0.1875 -0.045,-0.3825 v -0.2175 h 2.37 v -0.7575 q 0,-0.2475 -0.0525,-0.4875 -0.045,-0.24 -0.18,-0.45 -0.1275,-0.2175 -0.33,-0.36 -0.195,-0.15 -0.435,-0.2025 -0.24,-0.06 -0.4875,-0.06 -0.2475,0 -0.4875,0.06 -0.24,0.0525 -0.4425,0.2025 -0.195,0.1425 -0.33,0.36 -0.1275,0.21 -0.18,0.45 -0.045,0.24 -0.045,0.4875 V -384 q 0,0.2475 0.045,0.4875 0.0525,0.24 0.1875,0.4575 0.135,0.21 0.3375,0.36 0.2025,0.1425 0.4425,0.195 0.24,0.06 0.4875,0.06 z m -0.9,-2.3175 v -0.2175 q 0,-0.195 0.045,-0.3825 0.045,-0.1875 0.165,-0.3375 0.12,-0.1575 0.3,-0.225 0.1875,-0.075 0.375,-0.075 0.195,0 0.375,0.075 0.18,0.0675 0.3,0.225 0.12,0.15 0.165,0.3375 0.045,0.1875 0.045,0.3825 v 0.2175 z" />
            <path
               id="path226"
               style="stroke-width:0.75"
               d="m 148.122,-382.5 h 0.69 l 1.215,-3.975 h -0.63 l -0.7575,2.6475 q -0.045,0.1575 -0.09,0.3225 -0.0375,0.1575 -0.0825,0.315 -0.045,-0.1575 -0.09,-0.315 -0.0375,-0.165 -0.0825,-0.3225 l -0.75,-2.6475 h -0.6375 z" />
            <path
               id="path228"
               style="stroke-width:0.75"
               d="m 157.107,-381.2925 0.285,-0.4725 q -0.42,-0.24 -0.7575,-0.6 -0.33,-0.36 -0.54,-0.8025 -0.21,-0.4425 -0.3,-0.9225 -0.0825,-0.48 -0.0825,-0.96 0,-0.4875 0.0825,-0.9675 0.09,-0.48 0.3,-0.915 0.21,-0.4425 0.54,-0.8025 0.3375,-0.36 0.7575,-0.6 l -0.285,-0.4725 q -0.495,0.2625 -0.8925,0.675 -0.39,0.405 -0.645,0.9075 -0.2475,0.5025 -0.3525,1.0575 -0.105,0.555 -0.105,1.1175 0,0.5625 0.105,1.1175 0.105,0.5475 0.3525,1.0575 0.255,0.5025 0.645,0.9075 0.3975,0.4125 0.8925,0.675 z" />
            <path
               id="path230"
               style="stroke-width:0.75"
               d="m 158.517,-382.5 h 2.685 v -0.54 h -2.085 v -4.9725 h -0.6 z" />
            <path
               id="path232"
               style="stroke-width:0.75"
               d="m 162.1545,-382.5 h 2.625 v -0.54 h -0.96 v -3.435 h -1.56 v 0.54 h 0.96 v 2.895 h -1.065 z m 1.3125,-4.6725 q 0.1275,0 0.24,-0.0525 0.12,-0.0525 0.1725,-0.165 0.06,-0.12 0.06,-0.2475 0,-0.1275 -0.06,-0.24 -0.0525,-0.12 -0.1725,-0.1725 -0.1125,-0.06 -0.24,-0.06 -0.1275,0 -0.2475,0.06 -0.1125,0.0525 -0.165,0.1725 -0.0525,0.1125 -0.0525,0.24 0,0.1275 0.0525,0.2475 0.0525,0.1125 0.165,0.165 0.12,0.0525 0.2475,0.0525 z" />
            <path
               id="path234"
               style="stroke-width:0.75"
               d="m 167.202,-382.44 q 0.2625,0 0.525,-0.0525 0.2625,-0.0525 0.4875,-0.195 0.225,-0.1425 0.3525,-0.375 0.135,-0.24 0.135,-0.5025 0,-0.18 -0.0675,-0.3525 -0.0675,-0.1725 -0.195,-0.3 -0.12,-0.135 -0.2775,-0.225 -0.1575,-0.09 -0.33,-0.15 -0.165,-0.06 -0.3375,-0.105 -0.1725,-0.0525 -0.345,-0.0975 -0.1725,-0.0525 -0.345,-0.1125 -0.1725,-0.06 -0.3,-0.2025 -0.1275,-0.1425 -0.1275,-0.3225 0,-0.1425 0.0825,-0.2625 0.0825,-0.12 0.21,-0.1875 0.1275,-0.0675 0.2625,-0.09 0.1425,-0.0225 0.285,-0.0225 0.1425,0 0.2775,0.0225 0.135,0.0225 0.255,0.0825 0.1275,0.06 0.21,0.18 0.0825,0.1125 0.0825,0.255 h 0.6 q 0,-0.255 -0.1275,-0.48 -0.12,-0.225 -0.3375,-0.36 -0.21,-0.1425 -0.4575,-0.1875 -0.2475,-0.0525 -0.5025,-0.0525 -0.255,0 -0.51,0.0525 -0.2475,0.0525 -0.465,0.2025 -0.2175,0.1425 -0.3375,0.3825 -0.12,0.2325 -0.12,0.4875 0,0.18 0.0675,0.3525 0.0675,0.165 0.1875,0.3 0.1275,0.135 0.285,0.225 0.1575,0.09 0.3225,0.15 0.1725,0.0525 0.345,0.105 0.1725,0.0525 0.345,0.0975 0.1725,0.045 0.345,0.105 0.1725,0.06 0.3,0.2025 0.1275,0.1425 0.1275,0.3225 0,0.15 -0.0975,0.2775 -0.09,0.12 -0.225,0.1875 -0.135,0.06 -0.285,0.0825 -0.15,0.0225 -0.3,0.0225 -0.1425,0 -0.285,-0.0225 -0.1425,-0.0225 -0.2775,-0.0825 -0.135,-0.06 -0.2325,-0.18 -0.09,-0.1275 -0.09,-0.27 h -0.6 q 0,0.2625 0.135,0.495 0.135,0.225 0.36,0.3675 0.225,0.135 0.48,0.18 0.255,0.0525 0.51,0.0525 z" />
            <path
               id="path236"
               style="stroke-width:0.75"
               d="m 171.522,-382.44 q 0.2475,0 0.4875,-0.0825 0.24,-0.0825 0.405,-0.27 0.1725,-0.195 0.2475,-0.435 0.075,-0.2475 0.075,-0.495 0,-0.0375 0,-0.0675 h -0.6 v 0.0375 q 0,0.1425 -0.03,0.2775 -0.03,0.135 -0.1125,0.255 -0.075,0.12 -0.21,0.18 -0.1275,0.06 -0.2625,0.06 -0.165,0 -0.3075,-0.09 -0.1425,-0.0975 -0.21,-0.2475 -0.0675,-0.1575 -0.09,-0.315 -0.0225,-0.165 -0.0225,-0.33 v -1.9725 h 1.2075 v -0.54 h -1.2075 v -1.5375 h -0.6 v 1.5375 h -0.8175 v 0.54 h 0.8175 v 1.9725 q 0,0.225 0.03,0.45 0.0375,0.2175 0.1275,0.42 0.0975,0.2025 0.255,0.36 0.165,0.1575 0.375,0.225 0.2175,0.0675 0.4425,0.0675 z" />
            <path
               id="path238"
               style="stroke-width:0.75"
               d="m 174.717,-382.44 q 0.1575,0 0.3,-0.0675 0.15,-0.0675 0.2175,-0.21 0.0675,-0.15 0.0675,-0.3075 0,-0.1575 -0.0675,-0.3 -0.0675,-0.15 -0.2175,-0.2175 -0.1425,-0.0675 -0.3,-0.0675 -0.1575,0 -0.3075,0.0675 -0.1425,0.0675 -0.21,0.2175 -0.0675,0.1425 -0.0675,0.3 0,0.1575 0.0675,0.3075 0.0675,0.1425 0.21,0.21 0.15,0.0675 0.3075,0.0675 z" />
            <path
               id="path240"
               style="stroke-width:0.75"
               d="m 177.492,-382.5 h 0.6 v -2.1075 q 0,-0.18 0.015,-0.36 0.0225,-0.18 0.0675,-0.3525 0.0525,-0.18 0.15,-0.3375 0.0975,-0.1575 0.255,-0.2475 0.165,-0.09 0.345,-0.09 0.1125,0 0.2175,0.045 0.105,0.045 0.165,0.1425 0.06,0.0975 0.075,0.21 0.0225,0.105 0.0225,0.2175 h 0.6 q 0,-0.21 -0.0375,-0.42 -0.0375,-0.21 -0.1575,-0.39 -0.12,-0.18 -0.3225,-0.2625 -0.195,-0.0825 -0.405,-0.0825 -0.1875,0 -0.3675,0.075 -0.1725,0.075 -0.3,0.225 -0.12,0.15 -0.2025,0.3225 -0.075,0.1725 -0.12,0.3525 v -0.915 h -0.6 z" />
            <path
               id="path242"
               style="stroke-width:0.75"
               d="m 182.232,-382.44 q 0.255,0 0.51,-0.06 0.255,-0.0525 0.4725,-0.2025 0.2175,-0.1575 0.3375,-0.39 0.12,-0.24 0.135,-0.495 h -0.6 q -0.007,0.195 -0.1425,0.3525 -0.135,0.15 -0.33,0.2025 -0.1875,0.0525 -0.3825,0.0525 -0.195,0 -0.3825,-0.0675 -0.18,-0.075 -0.3075,-0.225 -0.12,-0.1575 -0.165,-0.345 -0.045,-0.1875 -0.045,-0.3825 v -0.2175 h 2.37 v -0.7575 q 0,-0.2475 -0.0525,-0.4875 -0.045,-0.24 -0.18,-0.45 -0.1275,-0.2175 -0.33,-0.36 -0.195,-0.15 -0.435,-0.2025 -0.24,-0.06 -0.4875,-0.06 -0.2475,0 -0.4875,0.06 -0.24,0.0525 -0.4425,0.2025 -0.195,0.1425 -0.33,0.36 -0.1275,0.21 -0.18,0.45 -0.045,0.24 -0.045,0.4875 V -384 q 0,0.2475 0.045,0.4875 0.0525,0.24 0.1875,0.4575 0.135,0.21 0.3375,0.36 0.2025,0.1425 0.4425,0.195 0.24,0.06 0.4875,0.06 z m -0.9,-2.3175 v -0.2175 q 0,-0.195 0.045,-0.3825 0.045,-0.1875 0.165,-0.3375 0.12,-0.1575 0.3,-0.225 0.1875,-0.075 0.375,-0.075 0.195,0 0.375,0.075 0.18,0.0675 0.3,0.225 0.12,0.15 0.165,0.3375 0.045,0.1875 0.045,0.3825 v 0.2175 z" />
            <path
               id="path244"
               style="stroke-width:0.75"
               d="m 185.622,-382.5 h 0.69 l 1.215,-3.975 h -0.63 l -0.7575,2.6475 q -0.045,0.1575 -0.09,0.3225 -0.0375,0.1575 -0.0825,0.315 -0.045,-0.1575 -0.09,-0.315 -0.0375,-0.165 -0.0825,-0.3225 l -0.75,-2.6475 h -0.6375 z" />
            <path
               id="path246"
               style="stroke-width:0.75"
               d="m 192.1545,-382.5 h 2.625 v -0.54 h -0.96 v -4.9725 h -1.56 v 0.54 h 0.96 v 4.4325 h -1.065 z" />
            <path
               id="path248"
               style="stroke-width:0.75"
               d="m 196.077,-381.2925 q 0.495,-0.2625 0.885,-0.675 0.3975,-0.405 0.6525,-0.9075 0.255,-0.51 0.3525,-1.0575 0.105,-0.555 0.105,-1.1175 0,-0.5625 -0.105,-1.1175 -0.0975,-0.555 -0.3525,-1.0575 -0.255,-0.5025 -0.6525,-0.9075 -0.39,-0.4125 -0.885,-0.675 l -0.285,0.4725 q 0.4275,0.24 0.7575,0.6 0.3375,0.36 0.54,0.8025 0.21,0.435 0.2925,0.915 0.09,0.48 0.09,0.9675 0,0.48 -0.09,0.96 -0.0825,0.48 -0.2925,0.9225 -0.2025,0.4425 -0.54,0.8025 -0.33,0.36 -0.7575,0.6 z" />
            <path
               id="path250"
               style="stroke-width:0.75"
               d="m 203.292,-385.4625 h 2.85 v -0.54 h -2.85 z m 0,1.365 h 2.85 v -0.54 h -2.85 z" />
            <path
               id="path252"
               style="stroke-width:0.75"
               d="m 210.9045,-382.5 h 2.625 v -0.54 h -0.96 v -4.9725 h -1.56 v 0.54 h 0.96 v 4.4325 h -1.065 z" />
            <path
               id="path254"
               style="stroke-width:0.75"
               d="m 215.967,-382.44 q 0.1575,0 0.3,-0.0675 0.15,-0.0675 0.2175,-0.21 0.0675,-0.15 0.0675,-0.3075 0,-0.1575 -0.0675,-0.3 -0.0675,-0.15 -0.2175,-0.2175 -0.1425,-0.0675 -0.3,-0.0675 -0.1575,0 -0.3075,0.0675 -0.1425,0.0675 -0.21,0.2175 -0.0675,0.1425 -0.0675,0.3 0,0.1575 0.0675,0.3075 0.0675,0.1425 0.21,0.21 0.15,0.0675 0.3075,0.0675 z" />
          </g>
          <g
             id="text48"
             style=""
             transform="scale(1,-1)"
             aria-label="Proof">
            <path
               id="path257"
               style="stroke-width:0.75"
               d="M 0.90450001,-374.25 H 1.5045 v -2.2725 H 2.187 q 0.255,0 0.5025,-0.06 0.255,-0.06 0.465,-0.2025 0.2175,-0.15 0.36,-0.3675 0.1425,-0.225 0.195,-0.48 0.0525,-0.255 0.0525,-0.51 0,-0.255 -0.0525,-0.51 -0.0525,-0.255 -0.195,-0.4725 -0.1425,-0.225 -0.36,-0.3675 -0.21,-0.15 -0.465,-0.21 -0.2475,-0.06 -0.5025,-0.06 H 0.90450001 Z M 1.5045,-377.0625 v -2.16 H 2.187 q 0.2025,0 0.3975,0.075 0.2025,0.0675 0.3375,0.2325 0.135,0.1575 0.1875,0.36 0.0525,0.2025 0.0525,0.4125 0,0.21 -0.0525,0.4125 -0.0525,0.2025 -0.1875,0.3675 -0.135,0.1575 -0.3375,0.2325 -0.195,0.0675 -0.3975,0.0675 z" />
            <path
               id="path259"
               style="stroke-width:0.75"
               d="m 4.992,-374.25 h 0.6 v -2.1075 q 0,-0.18 0.015,-0.36 0.0225,-0.18 0.0675,-0.3525 0.0525,-0.18 0.15,-0.3375 0.0975,-0.1575 0.255,-0.2475 0.165,-0.09 0.345,-0.09 0.1125,0 0.2175,0.045 0.105,0.045 0.165,0.1425 0.06,0.0975 0.075,0.21 0.0225,0.105 0.0225,0.2175 h 0.6 q 0,-0.21 -0.0375,-0.42 -0.0375,-0.21 -0.1575,-0.39 -0.12,-0.18 -0.3225,-0.2625 -0.195,-0.0825 -0.405,-0.0825 -0.1875,0 -0.3675,0.075 -0.1725,0.075 -0.3,0.225 -0.12,0.15 -0.2025,0.3225 -0.075,0.1725 -0.12,0.3525 v -0.915 h -0.6 z" />
            <path
               id="path261"
               style="stroke-width:0.75"
               d="m 9.7169995,-374.19 q 0.2475,0 0.4875005,-0.06 0.24,-0.06 0.435,-0.2025 0.2025,-0.15 0.33,-0.36 0.135,-0.21 0.18,-0.45 0.0525,-0.24 0.0525,-0.4875 v -0.975 q 0,-0.2475 -0.0525,-0.4875 -0.045,-0.24 -0.18,-0.45 -0.1275,-0.2175 -0.33,-0.36 -0.195,-0.15 -0.435,-0.2025 -0.2400005,-0.06 -0.4875005,-0.06 -0.2475,0 -0.4875,0.06 -0.24,0.0525 -0.4425,0.2025 -0.195,0.1425 -0.33,0.36 -0.1275,0.21 -0.18,0.45 -0.045,0.24 -0.045,0.4875 v 0.975 q 0,0.2475 0.045,0.4875 0.0525,0.24 0.18,0.45 0.135,0.21 0.33,0.36 0.2025,0.1425 0.4425,0.2025 0.24,0.06 0.4875,0.06 z m 0,-0.54 q -0.1875,0 -0.375,-0.0675 -0.18,-0.075 -0.3,-0.225 -0.12,-0.1575 -0.165,-0.345 -0.045,-0.195 -0.045,-0.3825 v -0.975 q 0,-0.195 0.045,-0.3825 0.045,-0.1875 0.165,-0.3375 0.12,-0.1575 0.3,-0.225 0.1875,-0.075 0.375,-0.075 0.195,0 0.3750005,0.075 0.18,0.0675 0.3,0.225 0.12,0.15 0.165,0.3375 0.045,0.1875 0.045,0.3825 v 0.975 q 0,0.1875 -0.045,0.3825 -0.045,0.1875 -0.165,0.345 -0.12,0.15 -0.3,0.225 -0.1800005,0.0675 -0.3750005,0.0675 z" />
            <path
               id="path263"
               style="stroke-width:0.75"
               d="m 13.467,-374.19 q 0.2475,0 0.4875,-0.06 0.24,-0.06 0.435,-0.2025 0.2025,-0.15 0.33,-0.36 0.135,-0.21 0.18,-0.45 0.0525,-0.24 0.0525,-0.4875 v -0.975 q 0,-0.2475 -0.0525,-0.4875 -0.045,-0.24 -0.18,-0.45 -0.1275,-0.2175 -0.33,-0.36 -0.195,-0.15 -0.435,-0.2025 -0.24,-0.06 -0.4875,-0.06 -0.2475,0 -0.4875,0.06 -0.24,0.0525 -0.4425,0.2025 -0.195,0.1425 -0.33,0.36 -0.1275,0.21 -0.18,0.45 -0.045,0.24 -0.045,0.4875 v 0.975 q 0,0.2475 0.045,0.4875 0.0525,0.24 0.18,0.45 0.135,0.21 0.33,0.36 0.2025,0.1425 0.4425,0.2025 0.24,0.06 0.4875,0.06 z m 0,-0.54 q -0.1875,0 -0.375,-0.0675 -0.18,-0.075 -0.3,-0.225 -0.12,-0.1575 -0.165,-0.345 -0.045,-0.195 -0.045,-0.3825 v -0.975 q 0,-0.195 0.045,-0.3825 0.045,-0.1875 0.165,-0.3375 0.12,-0.1575 0.3,-0.225 0.1875,-0.075 0.375,-0.075 0.195,0 0.375,0.075 0.18,0.0675 0.3,0.225 0.12,0.15 0.165,0.3375 0.045,0.1875 0.045,0.3825 v 0.975 q 0,0.1875 -0.045,0.3825 -0.045,0.1875 -0.165,0.345 -0.12,0.15 -0.3,0.225 -0.18,0.0675 -0.375,0.0675 z" />
            <path
               id="path265"
               style="stroke-width:0.75"
               d="m 16.639499,-374.25 h 0.6 v -3.21 h 1.26 V -378 h -1.26 v -0.7125 q 0,-0.12 0.015,-0.2325 0.0225,-0.12 0.075,-0.225 0.0525,-0.1125 0.1575,-0.1725 0.105,-0.06 0.225,-0.06 0.1275,0 0.24,0.0675 0.12,0.0675 0.165,0.195 0.0525,0.12 0.0525,0.2475 v 0.03 h 0.6 q 0,-0.03 0,-0.0525 0,-0.21 -0.075,-0.4125 -0.0675,-0.2025 -0.2175,-0.345 -0.15,-0.15 -0.3525,-0.21 -0.2025,-0.06 -0.4125,-0.06 -0.2325,0 -0.4575,0.0825 -0.2175,0.0825 -0.3675,0.27 -0.1425,0.1875 -0.195,0.42 -0.0525,0.225 -0.0525,0.4575 V -378 h -0.8475 v 0.54 h 0.8475 z" />
          </g>
          <g
             id="text52"
             style=""
             transform="scale(1,-1)"
             aria-label=".">
            <path
               id="path268"
               style="stroke-width:0.75"
               d="m 20.966999,-374.19 q 0.1575,0 0.3,-0.0675 0.15,-0.0675 0.2175,-0.21 0.0675,-0.15 0.0675,-0.3075 0,-0.1575 -0.0675,-0.3 -0.0675,-0.15 -0.2175,-0.2175 -0.1425,-0.0675 -0.3,-0.0675 -0.1575,0 -0.3075,0.0675 -0.1425,0.0675 -0.21,0.2175 -0.0675,0.1425 -0.0675,0.3 0,0.1575 0.0675,0.3075 0.0675,0.1425 0.21,0.21 0.15,0.0675 0.3075,0.0675 z" />
          </g>
          <g
             id="text56"
             style=""
             transform="scale(1,-1)"
             aria-label="induction">
            <path
               id="path271"
               style="stroke-width:0.75"
               d="M 8.4044995,-366 H 11.0295 v -0.54 h -0.96 v -3.435 H 8.5094995 v 0.54 h 0.96 v 2.895 h -1.065 z m 1.3125,-4.6725 q 0.1275,0 0.24,-0.0525 0.1200005,-0.0525 0.1725005,-0.165 0.06,-0.12 0.06,-0.2475 0,-0.1275 -0.06,-0.24 -0.0525,-0.12 -0.1725005,-0.1725 -0.1125,-0.06 -0.24,-0.06 -0.1275,0 -0.2475,0.06 -0.1125,0.0525 -0.165,0.1725 -0.0525,0.1125 -0.0525,0.24 0,0.1275 0.0525,0.2475 0.0525,0.1125 0.165,0.165 0.12,0.0525 0.2475,0.0525 z" />
            <path
               id="path273"
               style="stroke-width:0.75"
               d="m 12.042,-366 h 0.6 v -2.475 q 0,-0.1875 0.0375,-0.3675 0.0375,-0.1875 0.1425,-0.345 0.1125,-0.1575 0.285,-0.2325 0.1725,-0.075 0.36,-0.075 0.1875,0 0.36,0.075 0.1725,0.075 0.2775,0.2325 0.1125,0.1575 0.15,0.345 0.0375,0.18 0.0375,0.3675 V -366 h 0.6 v -2.475 q 0,-0.225 -0.03,-0.4425 -0.03,-0.225 -0.12,-0.4275 -0.09,-0.21 -0.2475,-0.375 -0.15,-0.165 -0.36,-0.24 -0.21,-0.075 -0.435,-0.075 -0.225,0 -0.45,0.0825 -0.2175,0.075 -0.375,0.255 -0.15,0.1725 -0.2325,0.39 v -0.6675 h -0.6 z" />
            <path
               id="path275"
               style="stroke-width:0.75"
               d="m 16.976999,-365.94 q 0.2325,0 0.45,-0.075 0.225,-0.0825 0.375,-0.255 0.1575,-0.18 0.24,-0.3975 V -366 h 0.6 v -5.5125 h -0.6 v 2.205 q -0.0825,-0.2175 -0.24,-0.39 -0.15,-0.18 -0.375,-0.255 -0.2175,-0.0825 -0.45,-0.0825 -0.2775,0 -0.5475,0.12 -0.2625,0.12 -0.42,0.36 -0.1575,0.24 -0.2175,0.5175 -0.06,0.2775 -0.06,0.5625 v 0.975 q 0,0.285 0.06,0.5625 0.06,0.2775 0.2175,0.5175 0.1575,0.24 0.42,0.36 0.27,0.12 0.5475,0.12 z m 0.2325,-0.54 q -0.1875,0 -0.3675,-0.0675 -0.18,-0.075 -0.3,-0.2325 -0.12,-0.1575 -0.165,-0.345 -0.045,-0.1875 -0.045,-0.375 v -0.975 q 0,-0.195 0.045,-0.3825 0.045,-0.1875 0.165,-0.3375 0.12,-0.1575 0.3,-0.225 0.18,-0.075 0.3675,-0.075 0.1875,0 0.36,0.075 0.18,0.075 0.285,0.2325 0.1125,0.1575 0.15,0.345 0.0375,0.18 0.0375,0.3675 v 0.975 q 0,0.1875 -0.0375,0.375 -0.0375,0.18 -0.15,0.3375 -0.105,0.1575 -0.285,0.2325 -0.1725,0.075 -0.36,0.075 z" />
            <path
               id="path277"
               style="stroke-width:0.75"
               d="m 20.734499,-365.94 q 0.2325,0 0.45,-0.0825 0.2175,-0.0825 0.3675,-0.255 0.1575,-0.18 0.24,-0.39 V -366 h 0.6 v -3.975 h -0.6 v 2.475 q 0,0.1875 -0.0375,0.375 -0.0375,0.18 -0.15,0.3375 -0.105,0.15 -0.2775,0.2325 -0.1725,0.075 -0.36,0.075 -0.1875,0 -0.36,-0.075 -0.1725,-0.0825 -0.285,-0.2325 -0.105,-0.1575 -0.1425,-0.3375 -0.0375,-0.1875 -0.0375,-0.375 v -2.475 h -0.6 v 2.475 q 0,0.225 0.03,0.4425 0.0375,0.2175 0.12,0.4275 0.09,0.2025 0.24,0.375 0.1575,0.165 0.3675,0.24 0.2175,0.075 0.435,0.075 z" />
            <path
               id="path279"
               style="stroke-width:0.75"
               d="m 24.701999,-365.94 q 0.2775,0 0.5475,-0.075 0.2775,-0.075 0.4875,-0.2625 0.21,-0.195 0.315,-0.4575 0.105,-0.27 0.105,-0.555 h -0.6 q 0,0.225 -0.1125,0.4275 -0.105,0.2025 -0.315,0.2925 -0.21,0.09 -0.4275,0.09 -0.195,0 -0.375,-0.0675 -0.18,-0.075 -0.2925,-0.2325 -0.1125,-0.1575 -0.1575,-0.345 -0.045,-0.1875 -0.045,-0.375 v -0.975 q 0,-0.1875 0.045,-0.375 0.045,-0.1875 0.1575,-0.345 0.1125,-0.1575 0.2925,-0.225 0.18,-0.075 0.375,-0.075 0.2175,0 0.4275,0.09 0.21,0.09 0.315,0.2925 0.1125,0.2025 0.1125,0.42 h 0.6 q 0,-0.2775 -0.105,-0.54 -0.105,-0.27 -0.315,-0.4575 -0.21,-0.195 -0.4875,-0.27 -0.27,-0.075 -0.5475,-0.075 -0.2475,0 -0.4875,0.06 -0.2325,0.06 -0.435,0.21 -0.195,0.1425 -0.3225,0.3525 -0.1275,0.21 -0.18,0.45 -0.045,0.24 -0.045,0.4875 v 0.975 q 0,0.24 0.045,0.48 0.0525,0.24 0.18,0.4575 0.1275,0.21 0.3225,0.36 0.2025,0.1425 0.435,0.2025 0.24,0.06 0.4875,0.06 z" />
            <path
               id="path281"
               style="stroke-width:0.75"
               d="m 29.021999,-365.94 q 0.2475,0 0.4875,-0.0825 0.24,-0.0825 0.405,-0.27 0.1725,-0.195 0.2475,-0.435 0.075,-0.2475 0.075,-0.495 0,-0.0375 0,-0.0675 h -0.6 v 0.0375 q 0,0.1425 -0.03,0.2775 -0.03,0.135 -0.1125,0.255 -0.075,0.12 -0.21,0.18 -0.1275,0.06 -0.2625,0.06 -0.165,0 -0.3075,-0.09 -0.1425,-0.0975 -0.21,-0.2475 -0.0675,-0.1575 -0.09,-0.315 -0.0225,-0.165 -0.0225,-0.33 v -1.9725 h 1.2075 v -0.54 h -1.2075 v -1.5375 h -0.6 v 1.5375 h -0.8175 v 0.54 h 0.8175 v 1.9725 q 0,0.225 0.03,0.45 0.0375,0.2175 0.1275,0.42 0.0975,0.2025 0.255,0.36 0.165,0.1575 0.375,0.225 0.2175,0.0675 0.4425,0.0675 z" />
            <path
               id="path283"
               style="stroke-width:0.75"
               d="m 30.904499,-366 h 2.625 v -0.54 h -0.96 v -3.435 h -1.56 v 0.54 h 0.96 v 2.895 h -1.065 z m 1.3125,-4.6725 q 0.1275,0 0.24,-0.0525 0.12,-0.0525 0.1725,-0.165 0.06,-0.12 0.06,-0.2475 0,-0.1275 -0.06,-0.24 -0.0525,-0.12 -0.1725,-0.1725 -0.1125,-0.06 -0.24,-0.06 -0.1275,0 -0.2475,0.06 -0.1125,0.0525 -0.165,0.1725 -0.0525,0.1125 -0.0525,0.24 0,0.1275 0.0525,0.2475 0.0525,0.1125 0.165,0.165 0.12,0.0525 0.2475,0.0525 z" />
            <path
               id="path285"
               style="stroke-width:0.75"
               d="m 35.966999,-365.94 q 0.2475,0 0.4875,-0.06 0.24,-0.06 0.435,-0.2025 0.2025,-0.15 0.33,-0.36 0.135,-0.21 0.18,-0.45 0.0525,-0.24 0.0525,-0.4875 v -0.975 q 0,-0.2475 -0.0525,-0.4875 -0.045,-0.24 -0.18,-0.45 -0.1275,-0.2175 -0.33,-0.36 -0.195,-0.15 -0.435,-0.2025 -0.24,-0.06 -0.4875,-0.06 -0.2475,0 -0.4875,0.06 -0.24,0.0525 -0.4425,0.2025 -0.195,0.1425 -0.33,0.36 -0.1275,0.21 -0.18,0.45 -0.045,0.24 -0.045,0.4875 v 0.975 q 0,0.2475 0.045,0.4875 0.0525,0.24 0.18,0.45 0.135,0.21 0.33,0.36 0.2025,0.1425 0.4425,0.2025 0.24,0.06 0.4875,0.06 z m 0,-0.54 q -0.1875,0 -0.375,-0.0675 -0.18,-0.075 -0.3,-0.225 -0.12,-0.1575 -0.165,-0.345 -0.045,-0.195 -0.045,-0.3825 v -0.975 q 0,-0.195 0.045,-0.3825 0.045,-0.1875 0.165,-0.3375 0.12,-0.1575 0.3,-0.225 0.1875,-0.075 0.375,-0.075 0.195,0 0.375,0.075 0.18,0.0675 0.3,0.225 0.12,0.15 0.165,0.3375 0.045,0.1875 0.045,0.3825 v 0.975 q 0,0.1875 -0.045,0.3825 -0.045,0.1875 -0.165,0.345 -0.12,0.15 -0.3,0.225 -0.18,0.0675 -0.375,0.0675 z" />
            <path
               id="path287"
               style="stroke-width:0.75"
               d="m 38.291999,-366 h 0.6 v -2.475 q 0,-0.1875 0.0375,-0.3675 0.0375,-0.1875 0.1425,-0.345 0.1125,-0.1575 0.285,-0.2325 0.1725,-0.075 0.36,-0.075 0.1875,0 0.36,0.075 0.1725,0.075 0.2775,0.2325 0.1125,0.1575 0.15,0.345 0.0375,0.18 0.0375,0.3675 V -366 h 0.6 v -2.475 q 0,-0.225 -0.03,-0.4425 -0.03,-0.225 -0.12,-0.4275 -0.09,-0.21 -0.2475,-0.375 -0.15,-0.165 -0.36,-0.24 -0.21,-0.075 -0.435,-0.075 -0.225,0 -0.45,0.0825 -0.2175,0.075 -0.375,0.255 -0.15,0.1725 -0.2325,0.39 v -0.6675 h -0.6 z" />
          </g>
          <g
             id="text60"
             style=""
             transform="scale(1,-1)"
             aria-label="l;">
            <path
               id="path290"
               style="stroke-width:0.75"
               d="m 45.904499,-366 h 2.625 v -0.54 h -0.96 v -4.9725 h -1.56 v 0.54 h 0.96 v 4.4325 h -1.065 z" />
            <path
               id="path292"
               style="stroke-width:0.75"
               d="m 50.966999,-368.865 q 0.1575,0 0.3,-0.0675 0.15,-0.0675 0.2175,-0.21 0.0675,-0.15 0.0675,-0.3075 0,-0.1575 -0.0675,-0.3 -0.0675,-0.15 -0.2175,-0.2175 -0.1425,-0.0675 -0.3,-0.0675 -0.1575,0 -0.3075,0.0675 -0.1425,0.0675 -0.21,0.2175 -0.0675,0.1425 -0.0675,0.3 0,0.1575 0.0675,0.3075 0.0675,0.1425 0.21,0.21 0.15,0.0675 0.3075,0.0675 z m -0.1575,4.4025 q 0.2175,-0.3 0.3825,-0.6375 0.1725,-0.33 0.2625,-0.6975 0.0975,-0.36 0.0975,-0.7275 0,-0.1575 -0.0675,-0.3 -0.0675,-0.15 -0.2175,-0.2175 -0.1425,-0.0675 -0.3,-0.0675 -0.1575,0 -0.3075,0.0675 -0.1425,0.0675 -0.21,0.2175 -0.0675,0.1425 -0.0675,0.3 0,0.1425 0.0525,0.285 0.06,0.135 0.1875,0.21 0.135,0.075 0.2775,0.09 -0.075,0.315 -0.225,0.6075 -0.1425,0.3 -0.3375,0.5625 z" />
          </g>
          <g
             id="text64"
             style=""
             transform="scale(1,-1)"
             aria-label="cbn">
            <path
               id="path295"
               style="stroke-width:0.75"
               d="m 58.451999,-365.94 q 0.2775,0 0.5475,-0.075 0.2775,-0.075 0.4875,-0.2625 0.21,-0.195 0.315,-0.4575 0.105,-0.27 0.105,-0.555 h -0.6 q 0,0.225 -0.1125,0.4275 -0.105,0.2025 -0.315,0.2925 -0.21,0.09 -0.4275,0.09 -0.195,0 -0.375,-0.0675 -0.18,-0.075 -0.2925,-0.2325 -0.1125,-0.1575 -0.1575,-0.345 -0.045,-0.1875 -0.045,-0.375 v -0.975 q 0,-0.1875 0.045,-0.375 0.045,-0.1875 0.1575,-0.345 0.1125,-0.1575 0.2925,-0.225 0.18,-0.075 0.375,-0.075 0.2175,0 0.4275,0.09 0.21,0.09 0.315,0.2925 0.1125,0.2025 0.1125,0.42 h 0.6 q 0,-0.2775 -0.105,-0.54 -0.105,-0.27 -0.315,-0.4575 -0.21,-0.195 -0.4875,-0.27 -0.27,-0.075 -0.5475,-0.075 -0.2475,0 -0.4875,0.06 -0.2325,0.06 -0.435,0.21 -0.195,0.1425 -0.3225,0.3525 -0.1275,0.21 -0.18,0.45 -0.045,0.24 -0.045,0.4875 v 0.975 q 0,0.24 0.045,0.48 0.0525,0.24 0.18,0.4575 0.1275,0.21 0.3225,0.36 0.2025,0.1425 0.435,0.2025 0.24,0.06 0.4875,0.06 z" />
            <path
               id="path297"
               style="stroke-width:0.75"
               d="m 62.456999,-365.94 q 0.285,0 0.5475,-0.12 0.2625,-0.12 0.42,-0.36 0.165,-0.24 0.2175,-0.5175 0.06,-0.2775 0.06,-0.5625 v -0.975 q 0,-0.285 -0.06,-0.5625 -0.0525,-0.2775 -0.2175,-0.5175 -0.1575,-0.24 -0.42,-0.36 -0.2625,-0.12 -0.5475,-0.12 -0.2325,0 -0.45,0.0825 -0.2175,0.075 -0.375,0.255 -0.15,0.1725 -0.24,0.39 v -2.205 h -0.6 V -366 h 0.6 v -0.6675 q 0.09,0.2175 0.24,0.3975 0.1575,0.1725 0.375,0.255 0.2175,0.075 0.45,0.075 z m -0.2325,-0.54 q -0.1875,0 -0.3675,-0.075 -0.1725,-0.075 -0.2775,-0.2325 -0.105,-0.1575 -0.15,-0.3375 -0.0375,-0.1875 -0.0375,-0.375 v -0.975 q 0,-0.1875 0.0375,-0.3675 0.045,-0.1875 0.15,-0.345 0.105,-0.1575 0.2775,-0.2325 0.18,-0.075 0.3675,-0.075 0.1875,0 0.3675,0.075 0.1875,0.0675 0.3,0.225 0.12,0.15 0.165,0.3375 0.045,0.1875 0.045,0.3825 v 0.975 q 0,0.1875 -0.045,0.375 -0.045,0.1875 -0.165,0.345 -0.1125,0.1575 -0.3,0.2325 -0.18,0.0675 -0.3675,0.0675 z" />
            <path
               id="path299"
               style="stroke-width:0.75"
               d="m 64.541995,-366 h 0.6 v -2.475 q 0,-0.1875 0.0375,-0.3675 0.0375,-0.1875 0.1425,-0.345 0.1125,-0.1575 0.285,-0.2325 0.1725,-0.075 0.36,-0.075 0.1875,0 0.36,0.075 0.1725,0.075 0.2775,0.2325 0.1125,0.1575 0.15,0.345 0.0375,0.18 0.0375,0.3675 V -366 h 0.6 v -2.475 q 0,-0.225 -0.03,-0.4425 -0.03,-0.225 -0.12,-0.4275 -0.09,-0.21 -0.2475,-0.375 -0.15,-0.165 -0.36,-0.24 -0.21,-0.075 -0.435,-0.075 -0.225,0 -0.45,0.0825 -0.2175,0.075 -0.375,0.255 -0.15,0.1725 -0.2325,0.39 v -0.6675 h -0.6 z" />
          </g>
          <g
             id="text68"
             style=""
             transform="scale(1,-1)"
             aria-label=".">
            <path
               id="path302"
               style="stroke-width:0.75"
               d="m 69.716995,-365.94 q 0.1575,0 0.3,-0.0675 0.15,-0.0675 0.2175,-0.21 0.0675,-0.15 0.0675,-0.3075 0,-0.1575 -0.0675,-0.3 -0.0675,-0.15 -0.2175,-0.2175 -0.1425,-0.0675 -0.3,-0.0675 -0.1575,0 -0.3075,0.0675 -0.1425,0.0675 -0.21,0.2175 -0.0675,0.1425 -0.0675,0.3 0,0.1575 0.0675,0.3075 0.0675,0.1425 0.21,0.21 0.15,0.0675 0.3075,0.0675 z" />
          </g>
        </g>
        <g
           style="font-size:6.24700022px"
           id="g140"
           font-size="6.247px">
          <g
             id="text74"
             style=""
             transform="scale(1,-1)"
             aria-label="A">
            <path
               id="path305"
               style="stroke-width:0.75"
               d="m 30.604373,-353.25 h 0.512254 l 0.24988,-1.20567 h 1.074484 l 0.24988,1.20567 h 0.512254 l -1.012014,-4.59155 h -0.574724 z m 1.742913,-1.65546 h -0.887074 l 0.287362,-1.40557 q 0.03748,-0.19366 0.07496,-0.38731 0.04373,-0.19991 0.08121,-0.39357 0.03748,0.19366 0.07496,0.39357 0.04373,0.19365 0.08121,0.38731 z" />
          </g>
          <g
             id="text78"
             style=""
             transform="scale(1,-1)"
             aria-label=":">
            <path
               id="path308"
               style="stroke-width:0.75"
               d="m 35.020937,-355.63635 q 0.131187,0 0.24988,-0.0562 0.12494,-0.0562 0.181163,-0.17491 0.05622,-0.12494 0.05622,-0.25613 0,-0.13119 -0.05622,-0.24988 -0.05622,-0.12494 -0.181163,-0.18116 -0.118693,-0.0562 -0.24988,-0.0562 -0.131187,0 -0.256127,0.0562 -0.118693,0.0562 -0.174916,0.18116 -0.05622,0.11869 -0.05622,0.24988 0,0.13119 0.05622,0.25613 0.05622,0.11869 0.174916,0.17491 0.12494,0.0562 0.256127,0.0562 z m 0,2.43633 q 0.131187,0 0.24988,-0.0562 0.12494,-0.0562 0.181163,-0.17491 0.05622,-0.12494 0.05622,-0.25613 0,-0.13119 -0.05622,-0.24988 -0.05622,-0.12494 -0.181163,-0.18116 -0.118693,-0.0562 -0.24988,-0.0562 -0.131187,0 -0.256127,0.0562 -0.118693,0.0562 -0.174916,0.18116 -0.05622,0.11869 -0.05622,0.24988 0,0.13119 0.05622,0.25613 0.05622,0.11869 0.174916,0.17491 0.12494,0.0562 0.256127,0.0562 z" />
          </g>
          <g
             id="text82"
             style=""
             transform="scale(1,-1)"
             aria-label="Type">
            <path
               id="path311"
               style="stroke-width:0.75"
               d="m 37.888244,-353.25 h 0.49976 v -4.14176 h 1.012014 v -0.44979 H 36.87623 v 0.44979 h 1.012014 z" />
            <path
               id="path313"
               style="stroke-width:0.75"
               d="m 40.630247,-351.96936 h 0.512254 l 0.181163,-0.58722 0.01874,-0.0812 1.180683,-3.92312 h -0.518501 l -0.737146,2.54878 -0.74964,-2.54878 H 39.9993 l 1.005767,3.32965 -0.137434,0.46853 q -0.06247,0.19365 -0.12494,0.39356 -0.05622,0.1999 -0.112446,0.39981 z" />
            <path
               id="path315"
               style="stroke-width:0.75"
               d="m 43.197334,-351.96936 h 0.49976 v -1.83662 q 0.07496,0.18116 0.199904,0.33109 0.131187,0.14368 0.31235,0.2124 0.181163,0.0625 0.37482,0.0625 0.237386,0 0.456031,-0.1 0.218645,-0.0999 0.349832,-0.29985 0.137434,-0.19991 0.181163,-0.43105 0.04998,-0.23113 0.04998,-0.46852 v -0.81211 q 0,-0.23739 -0.04998,-0.46853 -0.04373,-0.23113 -0.181163,-0.43104 -0.131187,-0.1999 -0.349832,-0.29985 -0.218645,-0.1 -0.456031,-0.1 -0.193657,0 -0.37482,0.0687 -0.181163,0.0625 -0.31235,0.2124 -0.12494,0.14368 -0.199904,0.32484 v -0.55598 h -0.49976 z m 1.193177,-1.68045 q -0.156175,0 -0.306103,-0.0625 -0.143681,-0.0625 -0.231139,-0.19366 -0.08746,-0.13118 -0.12494,-0.28111 -0.03124,-0.15618 -0.03124,-0.31235 v -0.81211 q 0,-0.15618 0.03124,-0.3061 0.03748,-0.15618 0.12494,-0.28737 0.08746,-0.13118 0.231139,-0.19365 0.149928,-0.0625 0.306103,-0.0625 0.156175,0 0.306103,0.0625 0.156175,0.0562 0.24988,0.18741 0.09995,0.12494 0.137434,0.28111 0.03748,0.15618 0.03748,0.3186 v 0.81211 q 0,0.15617 -0.03748,0.31235 -0.03748,0.15617 -0.137434,0.28736 -0.0937,0.13119 -0.24988,0.19366 -0.149928,0.0562 -0.306103,0.0562 z" />
            <path
               id="path317"
               style="stroke-width:0.75"
               d="m 47.519827,-353.20002 q 0.212398,0 0.424796,-0.05 0.212398,-0.0437 0.393561,-0.16867 0.181163,-0.13119 0.281115,-0.32484 0.09995,-0.19991 0.112446,-0.41231 h -0.49976 q -0.0062,0.16243 -0.118693,0.29361 -0.112446,0.12494 -0.274868,0.16867 -0.156175,0.0437 -0.318597,0.0437 -0.162422,0 -0.318597,-0.0562 -0.149928,-0.0625 -0.256127,-0.18741 -0.09995,-0.13119 -0.137434,-0.28736 -0.03748,-0.15618 -0.03748,-0.3186 v -0.18116 h 1.974052 v -0.63095 q 0,-0.20615 -0.04373,-0.40606 -0.03748,-0.1999 -0.149928,-0.37482 -0.106199,-0.18116 -0.274868,-0.29985 -0.162422,-0.12494 -0.362326,-0.16867 -0.199904,-0.05 -0.406055,-0.05 -0.206151,0 -0.406055,0.05 -0.199904,0.0437 -0.368573,0.16867 -0.162422,0.11869 -0.274868,0.29985 -0.106199,0.17492 -0.149928,0.37482 -0.03748,0.19991 -0.03748,0.40606 v 0.81211 q 0,0.20615 0.03748,0.40605 0.04373,0.19991 0.156175,0.38107 0.112446,0.17492 0.281115,0.29986 0.168669,0.11869 0.368573,0.16242 0.199904,0.05 0.406055,0.05 z m -0.74964,-1.93033 v -0.18116 q 0,-0.16242 0.03748,-0.3186 0.03748,-0.15617 0.137434,-0.28111 0.09995,-0.13119 0.24988,-0.18741 0.156175,-0.0625 0.31235,-0.0625 0.162422,0 0.31235,0.0625 0.149928,0.0562 0.24988,0.18741 0.09995,0.12494 0.137434,0.28111 0.03748,0.15618 0.03748,0.3186 v 0.18116 z" />
          </g>
          <g
             id="text86"
             style=""
             transform="scale(1,-1)"
             aria-label="nil = nil">
            <path
               id="path320"
               style="stroke-width:0.75"
               d="m 30.716819,-338.25 h 0.49976 v -2.06151 q 0,-0.15618 0.03124,-0.3061 0.03123,-0.15618 0.118693,-0.28737 0.0937,-0.13118 0.237386,-0.19365 0.143681,-0.0625 0.299856,-0.0625 0.156175,0 0.299856,0.0625 0.143681,0.0625 0.231139,0.19365 0.0937,0.13119 0.12494,0.28737 0.03124,0.14992 0.03124,0.3061 v 2.06151 h 0.49976 v -2.06151 q 0,-0.18741 -0.02499,-0.36857 -0.02499,-0.18741 -0.09995,-0.35608 -0.07496,-0.17492 -0.206151,-0.31235 -0.12494,-0.13744 -0.299856,-0.19991 -0.174916,-0.0625 -0.362326,-0.0625 -0.18741,0 -0.37482,0.0687 -0.181163,0.0625 -0.31235,0.2124 -0.12494,0.14368 -0.193657,0.32484 v -0.55598 h -0.49976 z" />
            <path
               id="path322"
               style="stroke-width:0.75"
               d="m 33.933594,-338.25 h 2.18645 v -0.44978 h -0.799616 v -2.86113 h -1.299376 v 0.44978 h 0.799616 v 2.41135 h -0.887074 z m 1.093225,-3.89188 q 0.106199,0 0.199904,-0.0437 0.09995,-0.0437 0.143681,-0.13743 0.04998,-0.1 0.04998,-0.20616 0,-0.10619 -0.04998,-0.1999 -0.04373,-0.0999 -0.143681,-0.14368 -0.0937,-0.05 -0.199904,-0.05 -0.106199,0 -0.206151,0.05 -0.0937,0.0437 -0.137434,0.14368 -0.04373,0.0937 -0.04373,0.1999 0,0.1062 0.04373,0.20616 0.04373,0.0937 0.137434,0.13743 0.09995,0.0437 0.206151,0.0437 z" />
            <path
               id="path324"
               style="stroke-width:0.75"
               d="m 37.056664,-338.25 h 2.18645 v -0.44978 h -0.799616 v -4.14177 h -1.299376 v 0.44979 h 0.799616 v 3.69198 h -0.887074 z" />
            <path
               id="path326"
               style="stroke-width:0.75"
               d="m 43.209098,-340.71757 h 2.37386 v -0.44978 h -2.37386 z m 0,1.13696 h 2.37386 v -0.44979 h -2.37386 z" />
            <path
               id="path328"
               style="stroke-width:0.75"
               d="m 49.455238,-338.25 h 0.49976 v -2.06151 q 0,-0.15618 0.03123,-0.3061 0.03124,-0.15618 0.118693,-0.28737 0.0937,-0.13118 0.237386,-0.19365 0.143681,-0.0625 0.299856,-0.0625 0.156175,0 0.299856,0.0625 0.143681,0.0625 0.231139,0.19365 0.0937,0.13119 0.12494,0.28737 0.03124,0.14992 0.03124,0.3061 v 2.06151 h 0.49976 v -2.06151 q 0,-0.18741 -0.02499,-0.36857 -0.02499,-0.18741 -0.09995,-0.35608 -0.07496,-0.17492 -0.206151,-0.31235 -0.12494,-0.13744 -0.299856,-0.19991 -0.174916,-0.0625 -0.362326,-0.0625 -0.18741,0 -0.37482,0.0687 -0.181163,0.0625 -0.31235,0.2124 -0.12494,0.14368 -0.193657,0.32484 v -0.55598 h -0.49976 z" />
            <path
               id="path330"
               style="stroke-width:0.75"
               d="m 52.672012,-338.25 h 2.18645 v -0.44978 h -0.799616 v -2.86113 H 52.75947 v 0.44978 h 0.799616 v 2.41135 h -0.887074 z m 1.093225,-3.89188 q 0.106199,0 0.199904,-0.0437 0.09995,-0.0437 0.143681,-0.13743 0.04998,-0.1 0.04998,-0.20616 0,-0.10619 -0.04998,-0.1999 -0.04373,-0.0999 -0.143681,-0.14368 -0.0937,-0.05 -0.199904,-0.05 -0.106199,0 -0.206151,0.05 -0.0937,0.0437 -0.137434,0.14368 -0.04373,0.0937 -0.04373,0.1999 0,0.1062 0.04373,0.20616 0.04373,0.0937 0.137434,0.13743 0.09995,0.0437 0.206151,0.0437 z" />
            <path
               id="path332"
               style="stroke-width:0.75"
               d="m 55.795082,-338.25 h 2.18645 v -0.44978 h -0.799616 v -4.14177 H 55.88254 v 0.44979 h 0.799616 v 3.69198 h -0.887074 z" />
          </g>
          <g
             id="text90"
             style=""
             transform="scale(1,-1)"
             aria-label="A">
            <path
               id="path335"
               style="stroke-width:0.75"
               d="m 30.604373,-325.5 h 0.512254 l 0.24988,-1.20567 h 1.074484 l 0.24988,1.20567 h 0.512254 l -1.012014,-4.59155 h -0.574724 z m 1.742913,-1.65546 h -0.887074 l 0.287362,-1.40557 q 0.03748,-0.19366 0.07496,-0.38731 0.04373,-0.19991 0.08121,-0.39357 0.03748,0.19366 0.07496,0.39357 0.04373,0.19365 0.08121,0.38731 z" />
          </g>
          <g
             id="text94"
             style=""
             transform="scale(1,-1)"
             aria-label=":">
            <path
               id="path338"
               style="stroke-width:0.75"
               d="m 35.020937,-327.88635 q 0.131187,0 0.24988,-0.0562 0.12494,-0.0562 0.181163,-0.17491 0.05622,-0.12494 0.05622,-0.25613 0,-0.13119 -0.05622,-0.24988 -0.05622,-0.12494 -0.181163,-0.18116 -0.118693,-0.0562 -0.24988,-0.0562 -0.131187,0 -0.256127,0.0562 -0.118693,0.0562 -0.174916,0.18116 -0.05622,0.11869 -0.05622,0.24988 0,0.13119 0.05622,0.25613 0.05622,0.11869 0.174916,0.17491 0.12494,0.0562 0.256127,0.0562 z m 0,2.43633 q 0.131187,0 0.24988,-0.0562 0.12494,-0.0562 0.181163,-0.17491 0.05622,-0.12494 0.05622,-0.25613 0,-0.13119 -0.05622,-0.24988 -0.05622,-0.12494 -0.181163,-0.18116 -0.118693,-0.0562 -0.24988,-0.0562 -0.131187,0 -0.256127,0.0562 -0.118693,0.0562 -0.174916,0.18116 -0.05622,0.11869 -0.05622,0.24988 0,0.13119 0.05622,0.25613 0.05622,0.11869 0.174916,0.17491 0.12494,0.0562 0.256127,0.0562 z" />
          </g>
          <g
             id="text98"
             style=""
             transform="scale(1,-1)"
             aria-label="Type">
            <path
               id="path341"
               style="stroke-width:0.75"
               d="m 37.888244,-325.5 h 0.49976 v -4.14176 h 1.012014 v -0.44979 H 36.87623 v 0.44979 h 1.012014 z" />
            <path
               id="path343"
               style="stroke-width:0.75"
               d="m 40.630247,-324.21936 h 0.512254 l 0.181163,-0.58722 0.01874,-0.0812 1.180683,-3.92312 h -0.518501 l -0.737146,2.54878 -0.74964,-2.54878 H 39.9993 l 1.005767,3.32965 -0.137434,0.46853 q -0.06247,0.19365 -0.12494,0.39356 -0.05622,0.1999 -0.112446,0.39981 z" />
            <path
               id="path345"
               style="stroke-width:0.75"
               d="m 43.197334,-324.21936 h 0.49976 v -1.83662 q 0.07496,0.18116 0.199904,0.33109 0.131187,0.14368 0.31235,0.2124 0.181163,0.0625 0.37482,0.0625 0.237386,0 0.456031,-0.1 0.218645,-0.0999 0.349832,-0.29985 0.137434,-0.19991 0.181163,-0.43105 0.04998,-0.23113 0.04998,-0.46852 v -0.81211 q 0,-0.23739 -0.04998,-0.46853 -0.04373,-0.23113 -0.181163,-0.43104 -0.131187,-0.1999 -0.349832,-0.29985 -0.218645,-0.1 -0.456031,-0.1 -0.193657,0 -0.37482,0.0687 -0.181163,0.0625 -0.31235,0.2124 -0.12494,0.14368 -0.199904,0.32484 v -0.55598 h -0.49976 z m 1.193177,-1.68045 q -0.156175,0 -0.306103,-0.0625 -0.143681,-0.0625 -0.231139,-0.19366 -0.08746,-0.13118 -0.12494,-0.28111 -0.03124,-0.15618 -0.03124,-0.31235 v -0.81211 q 0,-0.15618 0.03124,-0.3061 0.03748,-0.15618 0.12494,-0.28737 0.08746,-0.13118 0.231139,-0.19365 0.149928,-0.0625 0.306103,-0.0625 0.156175,0 0.306103,0.0625 0.156175,0.0562 0.24988,0.18741 0.09995,0.12494 0.137434,0.28111 0.03748,0.15618 0.03748,0.3186 v 0.81211 q 0,0.15617 -0.03748,0.31235 -0.03748,0.15617 -0.137434,0.28736 -0.0937,0.13119 -0.24988,0.19366 -0.149928,0.0562 -0.306103,0.0562 z" />
            <path
               id="path347"
               style="stroke-width:0.75"
               d="m 47.519827,-325.45002 q 0.212398,0 0.424796,-0.05 0.212398,-0.0437 0.393561,-0.16867 0.181163,-0.13119 0.281115,-0.32484 0.09995,-0.19991 0.112446,-0.41231 h -0.49976 q -0.0062,0.16243 -0.118693,0.29361 -0.112446,0.12494 -0.274868,0.16867 -0.156175,0.0437 -0.318597,0.0437 -0.162422,0 -0.318597,-0.0562 -0.149928,-0.0625 -0.256127,-0.18741 -0.09995,-0.13119 -0.137434,-0.28736 -0.03748,-0.15618 -0.03748,-0.3186 v -0.18116 h 1.974052 v -0.63095 q 0,-0.20615 -0.04373,-0.40606 -0.03748,-0.1999 -0.149928,-0.37482 -0.106199,-0.18116 -0.274868,-0.29985 -0.162422,-0.12494 -0.362326,-0.16867 -0.199904,-0.05 -0.406055,-0.05 -0.206151,0 -0.406055,0.05 -0.199904,0.0437 -0.368573,0.16867 -0.162422,0.11869 -0.274868,0.29985 -0.106199,0.17492 -0.149928,0.37482 -0.03748,0.19991 -0.03748,0.40606 v 0.81211 q 0,0.20615 0.03748,0.40605 0.04373,0.19991 0.156175,0.38107 0.112446,0.17492 0.281115,0.29986 0.168669,0.11869 0.368573,0.16242 0.199904,0.05 0.406055,0.05 z m -0.74964,-1.93033 v -0.18116 q 0,-0.16242 0.03748,-0.3186 0.03748,-0.15617 0.137434,-0.28111 0.09995,-0.13119 0.24988,-0.18741 0.156175,-0.0625 0.31235,-0.0625 0.162422,0 0.31235,0.0625 0.149928,0.0562 0.24988,0.18741 0.09995,0.12494 0.137434,0.28111 0.03748,0.15618 0.03748,0.3186 v 0.18116 z" />
          </g>
          <g
             id="text102"
             style=""
             transform="scale(1,-1)"
             aria-label="a">
            <path
               id="path350"
               style="stroke-width:0.75"
               d="m 31.603893,-318.70002 q 0.199904,0 0.393561,-0.0562 0.199904,-0.0625 0.356079,-0.1999 0.156175,-0.13744 0.237386,-0.3186 v 0.52475 h 0.49976 v -2.26766 q 0,-0.18741 -0.04998,-0.36233 -0.04373,-0.18116 -0.162422,-0.32484 -0.112446,-0.14993 -0.274868,-0.24363 -0.162422,-0.0937 -0.343585,-0.12494 -0.181163,-0.0375 -0.362326,-0.0375 -0.218645,0 -0.431043,0.05 -0.212398,0.0437 -0.393561,0.17492 -0.174916,0.13118 -0.274868,0.33109 -0.0937,0.1999 -0.0937,0.41855 v 0 h 0.49976 q 0,-0.16243 0.106199,-0.29361 0.106199,-0.13744 0.262374,-0.18117 0.162422,-0.05 0.324844,-0.05 0.174916,0 0.343585,0.0687 0.174916,0.0625 0.262374,0.23114 0.08746,0.16243 0.08746,0.34359 v 0.3186 h -0.568477 q -0.193657,0 -0.381067,0.025 -0.18741,0.025 -0.368573,0.1 -0.181163,0.0687 -0.331091,0.19365 -0.143681,0.12494 -0.212398,0.31235 -0.06247,0.18117 -0.06247,0.37482 0,0.19366 0.04998,0.38107 0.05622,0.18741 0.18741,0.33734 0.131187,0.14993 0.318597,0.2124 0.18741,0.0625 0.381067,0.0625 z m 0.18741,-0.44979 q -0.156175,0 -0.31235,-0.05 -0.149928,-0.0562 -0.231139,-0.19991 -0.08121,-0.14368 -0.08121,-0.29985 0,-0.11245 0.04998,-0.21865 0.04998,-0.1062 0.143681,-0.16867 0.09995,-0.0687 0.206151,-0.0999 0.112446,-0.0375 0.224892,-0.05 0.118693,-0.0125 0.231139,-0.0125 h 0.568477 v 0.37482 q 0,0.14993 -0.05622,0.29986 -0.04998,0.14368 -0.174916,0.24363 -0.118693,0.0999 -0.268621,0.14368 -0.143681,0.0375 -0.299856,0.0375 z" />
          </g>
          <g
             id="text106"
             style=""
             transform="scale(1,-1)"
             aria-label=":">
            <path
               id="path353"
               style="stroke-width:0.75"
               d="m 35.020937,-321.13635 q 0.131187,0 0.24988,-0.0562 0.12494,-0.0562 0.181163,-0.17491 0.05622,-0.12494 0.05622,-0.25613 0,-0.13119 -0.05622,-0.24988 -0.05622,-0.12494 -0.181163,-0.18116 -0.118693,-0.0562 -0.24988,-0.0562 -0.131187,0 -0.256127,0.0562 -0.118693,0.0562 -0.174916,0.18116 -0.05622,0.11869 -0.05622,0.24988 0,0.13119 0.05622,0.25613 0.05622,0.11869 0.174916,0.17491 0.12494,0.0562 0.256127,0.0562 z m 0,2.43633 q 0.131187,0 0.24988,-0.0562 0.12494,-0.0562 0.181163,-0.17491 0.05622,-0.12494 0.05622,-0.25613 0,-0.13119 -0.05622,-0.24988 -0.05622,-0.12494 -0.181163,-0.18116 -0.118693,-0.0562 -0.24988,-0.0562 -0.131187,0 -0.256127,0.0562 -0.118693,0.0562 -0.174916,0.18116 -0.05622,0.11869 -0.05622,0.24988 0,0.13119 0.05622,0.25613 0.05622,0.11869 0.174916,0.17491 0.12494,0.0562 0.256127,0.0562 z" />
          </g>
          <g
             id="text110"
             style=""
             transform="scale(1,-1)"
             aria-label="A">
            <path
               id="path356"
               style="stroke-width:0.75"
               d="m 36.838748,-318.75 h 0.512254 l 0.24988,-1.20567 h 1.074484 l 0.24988,1.20567 H 39.4375 l -1.012014,-4.59155 h -0.574724 z m 1.742913,-1.65546 h -0.887074 l 0.287362,-1.40557 q 0.03748,-0.19366 0.07496,-0.38731 0.04373,-0.19991 0.08121,-0.39357 0.03748,0.19366 0.07496,0.39357 0.04373,0.19365 0.08121,0.38731 z" />
          </g>
          <g
             id="text114"
             style=""
             transform="scale(1,-1)"
             aria-label="l">
            <path
               id="path359"
               style="stroke-width:0.75"
               d="m 30.810524,-312 h 2.18645 v -0.44978 h -0.799616 v -4.14177 h -1.299376 v 0.44979 h 0.799616 v 3.69198 h -0.887074 z" />
          </g>
          <g
             id="text118"
             style=""
             transform="scale(1,-1)"
             aria-label=":">
            <path
               id="path362"
               style="stroke-width:0.75"
               d="m 35.020937,-314.38635 q 0.131187,0 0.24988,-0.0562 0.12494,-0.0562 0.181163,-0.17491 0.05622,-0.12494 0.05622,-0.25613 0,-0.13119 -0.05622,-0.24988 -0.05622,-0.12494 -0.181163,-0.18116 -0.118693,-0.0562 -0.24988,-0.0562 -0.131187,0 -0.256127,0.0562 -0.118693,0.0562 -0.174916,0.18116 -0.05622,0.11869 -0.05622,0.24988 0,0.13119 0.05622,0.25613 0.05622,0.11869 0.174916,0.17491 0.12494,0.0562 0.256127,0.0562 z m 0,2.43633 q 0.131187,0 0.24988,-0.0562 0.12494,-0.0562 0.181163,-0.17491 0.05622,-0.12494 0.05622,-0.25613 0,-0.13119 -0.05622,-0.24988 -0.05622,-0.12494 -0.181163,-0.18116 -0.118693,-0.0562 -0.24988,-0.0562 -0.131187,0 -0.256127,0.0562 -0.118693,0.0562 -0.174916,0.18116 -0.05622,0.11869 -0.05622,0.24988 0,0.13119 0.05622,0.25613 0.05622,0.11869 0.174916,0.17491 0.12494,0.0562 0.256127,0.0562 z" />
          </g>
          <g
             id="text122"
             style=""
             transform="scale(1,-1)"
             aria-label="list A">
            <path
               id="path365"
               style="stroke-width:0.75"
               d="m 37.044899,-312 h 2.18645 v -0.44978 h -0.799616 v -4.14177 h -1.299376 v 0.44979 h 0.799616 v 3.69198 h -0.887074 z" />
            <path
               id="path367"
               style="stroke-width:0.75"
               d="m 40.167969,-312 h 2.18645 v -0.44978 h -0.799616 v -2.86113 h -1.299376 v 0.44978 h 0.799616 v 2.41135 h -0.887074 z m 1.093225,-3.89188 q 0.106199,0 0.199904,-0.0437 0.09995,-0.0437 0.143681,-0.13743 0.04998,-0.1 0.04998,-0.20616 0,-0.10619 -0.04998,-0.1999 -0.04373,-0.0999 -0.143681,-0.14368 -0.0937,-0.05 -0.199904,-0.05 -0.106199,0 -0.206151,0.05 -0.0937,0.0437 -0.137434,0.14368 -0.04373,0.0937 -0.04373,0.1999 0,0.1062 0.04373,0.20616 0.04373,0.0937 0.137434,0.13743 0.09995,0.0437 0.206151,0.0437 z" />
            <path
               id="path369"
               style="stroke-width:0.75"
               d="m 44.37177,-311.95002 q 0.218645,0 0.43729,-0.0437 0.218645,-0.0437 0.406055,-0.16243 0.18741,-0.11869 0.293609,-0.31235 0.112446,-0.1999 0.112446,-0.41854 0,-0.14993 -0.05622,-0.29361 -0.05622,-0.14368 -0.162422,-0.24988 -0.09995,-0.11245 -0.231139,-0.18741 -0.131187,-0.075 -0.274868,-0.12494 -0.137434,-0.05 -0.281115,-0.0875 -0.143681,-0.0437 -0.287362,-0.0812 -0.143681,-0.0437 -0.287362,-0.0937 -0.143681,-0.05 -0.24988,-0.16867 -0.106199,-0.11869 -0.106199,-0.26862 0,-0.11869 0.06872,-0.21864 0.06872,-0.0999 0.174916,-0.15618 0.106199,-0.0562 0.218645,-0.075 0.118693,-0.0187 0.237386,-0.0187 0.118693,0 0.231139,0.0187 0.112446,0.0187 0.212398,0.0687 0.106199,0.05 0.174916,0.14992 0.06872,0.0937 0.06872,0.2124 h 0.49976 q 0,-0.2124 -0.106199,-0.39981 -0.09995,-0.18741 -0.281115,-0.29985 -0.174916,-0.1187 -0.381067,-0.15618 -0.206151,-0.0437 -0.418549,-0.0437 -0.212398,0 -0.424796,0.0437 -0.206151,0.0437 -0.387314,0.16867 -0.181163,0.11869 -0.281115,0.3186 -0.09995,0.19366 -0.09995,0.40605 0,0.14993 0.05622,0.29361 0.05622,0.13744 0.156175,0.24988 0.106199,0.11245 0.237386,0.18741 0.131187,0.075 0.268621,0.12494 0.143681,0.0437 0.287362,0.0875 0.143681,0.0437 0.287362,0.0812 0.143681,0.0375 0.287362,0.0875 0.143681,0.05 0.24988,0.16867 0.106199,0.11869 0.106199,0.26862 0,0.12494 -0.08121,0.23114 -0.07496,0.0999 -0.18741,0.15617 -0.112446,0.05 -0.237386,0.0687 -0.12494,0.0187 -0.24988,0.0187 -0.118693,0 -0.237386,-0.0187 -0.118693,-0.0187 -0.231139,-0.0687 -0.112446,-0.05 -0.193657,-0.14992 -0.07496,-0.1062 -0.07496,-0.2249 h -0.49976 q 0,0.21865 0.112446,0.41231 0.112446,0.18741 0.299856,0.3061 0.18741,0.11244 0.399808,0.14993 0.212398,0.0437 0.424796,0.0437 z" />
            <path
               id="path371"
               style="stroke-width:0.75"
               d="m 47.969611,-311.95002 q 0.206151,0 0.406055,-0.0687 0.199904,-0.0687 0.337338,-0.22489 0.143681,-0.16243 0.206151,-0.36233 0.06247,-0.20615 0.06247,-0.4123 0,-0.0312 0,-0.0562 h -0.49976 v 0.0312 q 0,0.11869 -0.02499,0.23114 -0.02499,0.11245 -0.0937,0.2124 -0.06247,0.1 -0.174916,0.14993 -0.106199,0.05 -0.218645,0.05 -0.137434,0 -0.256127,-0.075 -0.118693,-0.0812 -0.174916,-0.20615 -0.05622,-0.13119 -0.07496,-0.26238 -0.01874,-0.13743 -0.01874,-0.27487 v -1.64296 h 1.005767 v -0.44978 h -1.005767 v -1.28064 h -0.49976 v 1.28064 H 46.26418 v 0.44978 h 0.680923 v 1.64296 q 0,0.18741 0.02499,0.37482 0.03124,0.18117 0.106199,0.34984 0.08121,0.16867 0.212398,0.29985 0.137434,0.13119 0.31235,0.18741 0.181163,0.0562 0.368573,0.0562 z" />
            <path
               id="path373"
               style="stroke-width:0.75"
               d="m 52.454097,-312 h 0.512254 l 0.24988,-1.20567 h 1.074484 L 54.540595,-312 h 0.512254 l -1.012014,-4.59155 h -0.574724 z m 1.742913,-1.65546 h -0.887074 l 0.287362,-1.40557 q 0.03748,-0.19366 0.07496,-0.38731 0.04373,-0.19991 0.08121,-0.39357 0.03748,0.19366 0.07496,0.39357 0.04373,0.19365 0.08121,0.38731 z" />
          </g>
          <g
             id="text126"
             style=""
             transform="scale(1,-1)"
             aria-label="IHl">
            <path
               id="path376"
               style="stroke-width:0.75"
               d="m 30.810524,-305.25 h 2.18645 v -0.44978 h -0.843345 v -3.69198 h 0.843345 v -0.44979 h -2.18645 v 0.44979 h 0.843345 v 3.69198 h -0.843345 z" />
            <path
               id="path378"
               style="stroke-width:0.75"
               d="m 33.839889,-305.25 h 0.49976 v -2.14897 h 1.37434 v 2.14897 h 0.49976 v -4.59155 h -0.49976 v 1.9928 h -1.37434 v -1.9928 h -0.49976 z" />
            <path
               id="path380"
               style="stroke-width:0.75"
               d="m 37.056664,-305.25 h 2.18645 v -0.44978 h -0.799616 v -4.14177 h -1.299376 v 0.44979 h 0.799616 v 3.69198 h -0.887074 z" />
          </g>
          <g
             id="text130"
             style=""
             transform="scale(1,-1)"
             aria-label=":">
            <path
               id="path383"
               style="stroke-width:0.75"
               d="m 41.26703,-307.63635 q 0.131187,0 0.24988,-0.0562 0.12494,-0.0562 0.181163,-0.17491 0.05622,-0.12494 0.05622,-0.25613 0,-0.13119 -0.05622,-0.24988 -0.05622,-0.12494 -0.181163,-0.18116 -0.118693,-0.0562 -0.24988,-0.0562 -0.131187,0 -0.256127,0.0562 -0.118693,0.0562 -0.174916,0.18116 -0.05622,0.11869 -0.05622,0.24988 0,0.13119 0.05622,0.25613 0.05622,0.11869 0.174916,0.17491 0.12494,0.0562 0.256127,0.0562 z m 0,2.43633 q 0.131187,0 0.24988,-0.0562 0.12494,-0.0562 0.181163,-0.17491 0.05622,-0.12494 0.05622,-0.25613 0,-0.13119 -0.05622,-0.24988 -0.05622,-0.12494 -0.181163,-0.18116 -0.118693,-0.0562 -0.24988,-0.0562 -0.131187,0 -0.256127,0.0562 -0.118693,0.0562 -0.174916,0.18116 -0.05622,0.11869 -0.05622,0.24988 0,0.13119 0.05622,0.25613 0.05622,0.11869 0.174916,0.17491 0.12494,0.0562 0.256127,0.0562 z" />
          </g>
          <g
             id="text134"
             style=""
             transform="scale(1,-1)"
             aria-label="rev (rev l) = l">
            <path
               id="path386"
               style="stroke-width:0.75"
               d="m 43.572108,-305.25 h 0.49976 v -1.75541 q 0,-0.14993 0.01249,-0.29985 0.01874,-0.14993 0.05622,-0.29361 0.04373,-0.14993 0.12494,-0.28112 0.08121,-0.13118 0.212398,-0.20615 0.137434,-0.075 0.287362,-0.075 0.0937,0 0.181163,0.0375 0.08746,0.0375 0.137434,0.11869 0.04998,0.0812 0.06247,0.17492 0.01874,0.0875 0.01874,0.18116 h 0.49976 q 0,-0.17491 -0.03124,-0.34983 -0.03123,-0.17492 -0.131187,-0.32484 -0.09995,-0.14993 -0.268621,-0.21865 -0.162422,-0.0687 -0.337338,-0.0687 -0.156175,0 -0.306103,0.0625 -0.143681,0.0625 -0.24988,0.18741 -0.09995,0.12494 -0.168669,0.26862 -0.06247,0.14369 -0.09995,0.29361 v -0.76213 h -0.49976 z" />
            <path
               id="path388"
               style="stroke-width:0.75"
               d="m 47.519782,-305.20002 q 0.212398,0 0.424796,-0.05 0.212398,-0.0437 0.393561,-0.16867 0.181163,-0.13119 0.281115,-0.32484 0.09995,-0.19991 0.112446,-0.41231 h -0.49976 q -0.0062,0.16243 -0.118693,0.29361 -0.112446,0.12494 -0.274868,0.16867 -0.156175,0.0437 -0.318597,0.0437 -0.162422,0 -0.318597,-0.0562 -0.149928,-0.0625 -0.256127,-0.18741 -0.09995,-0.13119 -0.137434,-0.28736 -0.03748,-0.15618 -0.03748,-0.3186 v -0.18116 h 1.974052 v -0.63095 q 0,-0.20615 -0.04373,-0.40606 -0.03748,-0.1999 -0.149928,-0.37482 -0.106199,-0.18116 -0.274868,-0.29985 -0.162422,-0.12494 -0.362326,-0.16867 -0.199904,-0.05 -0.406055,-0.05 -0.206151,0 -0.406055,0.05 -0.199904,0.0437 -0.368573,0.16867 -0.162422,0.11869 -0.274868,0.29985 -0.106199,0.17492 -0.149928,0.37482 -0.03748,0.19991 -0.03748,0.40606 v 0.81211 q 0,0.20615 0.03748,0.40605 0.04373,0.19991 0.156175,0.38107 0.112446,0.17492 0.281115,0.29986 0.168669,0.11869 0.368573,0.16242 0.199904,0.05 0.406055,0.05 z m -0.74964,-1.93033 v -0.18116 q 0,-0.16242 0.03748,-0.3186 0.03748,-0.15617 0.137434,-0.28111 0.09995,-0.13119 0.24988,-0.18741 0.156175,-0.0625 0.31235,-0.0625 0.162422,0 0.31235,0.0625 0.149928,0.0562 0.24988,0.18741 0.09995,0.12494 0.137434,0.28111 0.03748,0.15618 0.03748,0.3186 v 0.18116 z" />
            <path
               id="path390"
               style="stroke-width:0.75"
               d="m 50.342995,-305.25 h 0.574724 l 1.012014,-3.31091 h -0.524748 l -0.630947,2.20519 q -0.03748,0.13119 -0.07496,0.26862 -0.03124,0.13119 -0.06872,0.26238 -0.03748,-0.13119 -0.07496,-0.26238 -0.03124,-0.13743 -0.06872,-0.26862 l -0.6247,-2.20519 h -0.530995 z" />
            <path
               id="path392"
               style="stroke-width:0.75"
               d="m 57.826041,-304.24423 0.237386,-0.39356 q -0.349832,-0.19991 -0.630947,-0.49976 -0.274868,-0.29986 -0.449784,-0.66843 -0.174916,-0.36858 -0.24988,-0.76838 -0.06872,-0.39981 -0.06872,-0.79962 0,-0.40606 0.06872,-0.80586 0.07496,-0.39981 0.24988,-0.76214 0.174916,-0.36857 0.449784,-0.66843 0.281115,-0.29985 0.630947,-0.49976 l -0.237386,-0.39356 q -0.412302,0.21865 -0.743393,0.56223 -0.324844,0.33734 -0.537242,0.75589 -0.206151,0.41855 -0.293609,0.88083 -0.08746,0.46227 -0.08746,0.9308 0,0.46852 0.08746,0.9308 0.08746,0.45603 0.293609,0.88083 0.212398,0.41855 0.537242,0.75589 0.331091,0.34358 0.743393,0.56223 z" />
            <path
               id="path394"
               style="stroke-width:0.75"
               d="m 59.187457,-305.25 h 0.49976 v -1.75541 q 0,-0.14993 0.01249,-0.29985 0.01874,-0.14993 0.05622,-0.29361 0.04373,-0.14993 0.12494,-0.28112 0.08121,-0.13118 0.212398,-0.20615 0.137434,-0.075 0.287362,-0.075 0.0937,0 0.181163,0.0375 0.08746,0.0375 0.137434,0.11869 0.04998,0.0812 0.06247,0.17492 0.01874,0.0875 0.01874,0.18116 h 0.49976 q 0,-0.17491 -0.03124,-0.34983 -0.03124,-0.17492 -0.131187,-0.32484 -0.09995,-0.14993 -0.268621,-0.21865 -0.162422,-0.0687 -0.337338,-0.0687 -0.156175,0 -0.306103,0.0625 -0.143681,0.0625 -0.24988,0.18741 -0.09995,0.12494 -0.168669,0.26862 -0.06247,0.14369 -0.09995,0.29361 v -0.76213 h -0.49976 z" />
            <path
               id="path396"
               style="stroke-width:0.75"
               d="m 63.13513,-305.20002 q 0.212398,0 0.424796,-0.05 0.212398,-0.0437 0.393561,-0.16867 0.181163,-0.13119 0.281115,-0.32484 0.09995,-0.19991 0.112446,-0.41231 h -0.49976 q -0.0062,0.16243 -0.118693,0.29361 -0.112446,0.12494 -0.274868,0.16867 -0.156175,0.0437 -0.318597,0.0437 -0.162422,0 -0.318597,-0.0562 -0.149928,-0.0625 -0.256127,-0.18741 -0.09995,-0.13119 -0.137434,-0.28736 -0.03748,-0.15618 -0.03748,-0.3186 v -0.18116 h 1.974052 v -0.63095 q 0,-0.20615 -0.04373,-0.40606 -0.03748,-0.1999 -0.149928,-0.37482 -0.106199,-0.18116 -0.274868,-0.29985 -0.162422,-0.12494 -0.362326,-0.16867 -0.199904,-0.05 -0.406055,-0.05 -0.206151,0 -0.406055,0.05 -0.199904,0.0437 -0.368573,0.16867 -0.162422,0.11869 -0.274868,0.29985 -0.106199,0.17492 -0.149928,0.37482 -0.03748,0.19991 -0.03748,0.40606 v 0.81211 q 0,0.20615 0.03748,0.40605 0.04373,0.19991 0.156175,0.38107 0.112446,0.17492 0.281115,0.29986 0.168669,0.11869 0.368573,0.16242 0.199904,0.05 0.406055,0.05 z m -0.74964,-1.93033 v -0.18116 q 0,-0.16242 0.03748,-0.3186 0.03748,-0.15617 0.137434,-0.28111 0.09995,-0.13119 0.24988,-0.18741 0.156175,-0.0625 0.31235,-0.0625 0.162422,0 0.31235,0.0625 0.149928,0.0562 0.24988,0.18741 0.09995,0.12494 0.137434,0.28111 0.03748,0.15618 0.03748,0.3186 v 0.18116 z" />
            <path
               id="path398"
               style="stroke-width:0.75"
               d="m 65.95834,-305.25 h 0.574724 l 1.012014,-3.31091 H 67.02033 l -0.630947,2.20519 q -0.03748,0.13119 -0.07496,0.26862 -0.03123,0.13119 -0.06872,0.26238 -0.03748,-0.13119 -0.07496,-0.26238 -0.03123,-0.13743 -0.06872,-0.26862 l -0.6247,-2.20519 h -0.530995 z" />
            <path
               id="path400"
               style="stroke-width:0.75"
               d="m 71.398617,-305.25 h 2.18645 v -0.44978 h -0.799616 v -4.14177 h -1.299376 v 0.44979 h 0.799616 v 3.69198 h -0.887074 z" />
            <path
               id="path402"
               style="stroke-width:0.75"
               d="m 74.665368,-304.24423 q 0.412302,-0.21865 0.737146,-0.56223 0.331091,-0.33734 0.543489,-0.75589 0.212398,-0.4248 0.293609,-0.88083 0.08746,-0.46228 0.08746,-0.9308 0,-0.46853 -0.08746,-0.9308 -0.08121,-0.46228 -0.293609,-0.88083 -0.212398,-0.41855 -0.543489,-0.75589 -0.324844,-0.34358 -0.737146,-0.56223 l -0.237386,0.39356 q 0.356079,0.19991 0.630947,0.49976 0.281115,0.29986 0.449784,0.66843 0.174916,0.36233 0.243633,0.76214 0.07496,0.3998 0.07496,0.80586 0,0.39981 -0.07496,0.79962 -0.06872,0.3998 -0.243633,0.76838 -0.168669,0.36857 -0.449784,0.66843 -0.274868,0.29985 -0.630947,0.49976 z" />
            <path
               id="path404"
               style="stroke-width:0.75"
               d="m 80.674121,-307.71757 h 2.37386 v -0.44978 h -2.37386 z m 0,1.13696 h 2.37386 v -0.44979 h -2.37386 z" />
            <path
               id="path406"
               style="stroke-width:0.75"
               d="m 87.013966,-305.25 h 2.18645 v -0.44978 H 88.4008 v -4.14177 h -1.299376 v 0.44979 h 0.799616 v 3.69198 h -0.887074 z" />
          </g>
          <g
             id="text138"
             style=""
             transform="scale(1,-1)"
             aria-label="rev (rev l a nil) = a l">
            <path
               id="path409"
               style="stroke-width:0.75"
               d="m 31.091639,-291 h 0.49976 v -1.75541 q 0,-0.14993 0.01249,-0.29985 0.01874,-0.14993 0.05622,-0.29361 0.04373,-0.14993 0.12494,-0.28112 0.08121,-0.13118 0.212398,-0.20615 0.137434,-0.075 0.287362,-0.075 0.0937,0 0.181163,0.0375 0.08746,0.0375 0.137434,0.11869 0.04998,0.0812 0.06247,0.17492 0.01874,0.0875 0.01874,0.18116 h 0.49976 q 0,-0.17491 -0.03124,-0.34983 -0.03124,-0.17492 -0.131187,-0.32484 -0.09995,-0.14993 -0.268621,-0.21865 -0.162422,-0.0687 -0.337338,-0.0687 -0.156175,0 -0.306103,0.0625 -0.143681,0.0625 -0.24988,0.18741 -0.09995,0.12494 -0.168669,0.26862 -0.06247,0.14369 -0.09995,0.29361 v -0.76213 h -0.49976 z" />
            <path
               id="path411"
               style="stroke-width:0.75"
               d="m 35.039313,-290.95002 q 0.212398,0 0.424796,-0.05 0.212398,-0.0437 0.393561,-0.16867 0.181163,-0.13119 0.281115,-0.32484 0.09995,-0.19991 0.112446,-0.41231 h -0.49976 q -0.0062,0.16243 -0.118693,0.29361 -0.112446,0.12494 -0.274868,0.16867 -0.156175,0.0437 -0.318597,0.0437 -0.162422,0 -0.318597,-0.0562 -0.149928,-0.0625 -0.256127,-0.18741 -0.09995,-0.13119 -0.137434,-0.28736 -0.03748,-0.15618 -0.03748,-0.3186 v -0.18116 h 1.974052 v -0.63095 q 0,-0.20615 -0.04373,-0.40606 -0.03748,-0.1999 -0.149928,-0.37482 -0.106199,-0.18116 -0.274868,-0.29985 -0.162422,-0.12494 -0.362326,-0.16867 -0.199904,-0.05 -0.406055,-0.05 -0.206151,0 -0.406055,0.05 -0.199904,0.0437 -0.368573,0.16867 -0.162422,0.11869 -0.274868,0.29985 -0.106199,0.17492 -0.149928,0.37482 -0.03748,0.19991 -0.03748,0.40606 v 0.81211 q 0,0.20615 0.03748,0.40605 0.04373,0.19991 0.156175,0.38107 0.112446,0.17492 0.281115,0.29986 0.168669,0.11869 0.368573,0.16242 0.199904,0.05 0.406055,0.05 z m -0.74964,-1.93033 v -0.18116 q 0,-0.16242 0.03748,-0.3186 0.03748,-0.15617 0.137434,-0.28111 0.09995,-0.13119 0.24988,-0.18741 0.156175,-0.0625 0.31235,-0.0625 0.162422,0 0.31235,0.0625 0.149928,0.0562 0.24988,0.18741 0.09995,0.12494 0.137434,0.28111 0.03748,0.15618 0.03748,0.3186 v 0.18116 z" />
            <path
               id="path413"
               style="stroke-width:0.75"
               d="m 37.862527,-291 h 0.574724 l 1.012014,-3.31091 h -0.524748 l -0.630947,2.20519 q -0.03748,0.13119 -0.07496,0.26862 -0.03124,0.13119 -0.06872,0.26238 -0.03748,-0.13119 -0.07496,-0.26238 -0.03124,-0.13743 -0.06872,-0.26862 l -0.6247,-2.20519 h -0.530995 z" />
            <path
               id="path415"
               style="stroke-width:0.75"
               d="m 45.345572,-289.99423 0.237386,-0.39356 q -0.349832,-0.19991 -0.630947,-0.49976 -0.274868,-0.29986 -0.449784,-0.66843 -0.174916,-0.36858 -0.24988,-0.76838 -0.06872,-0.39981 -0.06872,-0.79962 0,-0.40606 0.06872,-0.80586 0.07496,-0.39981 0.24988,-0.76214 0.174916,-0.36857 0.449784,-0.66843 0.281115,-0.29985 0.630947,-0.49976 l -0.237386,-0.39356 q -0.412302,0.21865 -0.743393,0.56223 -0.324844,0.33734 -0.537242,0.75589 -0.206151,0.41855 -0.293609,0.88083 -0.08746,0.46227 -0.08746,0.9308 0,0.46852 0.08746,0.9308 0.08746,0.45603 0.293609,0.88083 0.212398,0.41855 0.537242,0.75589 0.331091,0.34358 0.743393,0.56223 z" />
            <path
               id="path417"
               style="stroke-width:0.75"
               d="m 46.706988,-291 h 0.49976 v -1.75541 q 0,-0.14993 0.01249,-0.29985 0.01874,-0.14993 0.05622,-0.29361 0.04373,-0.14993 0.12494,-0.28112 0.08121,-0.13118 0.212398,-0.20615 0.137434,-0.075 0.287362,-0.075 0.0937,0 0.181163,0.0375 0.08746,0.0375 0.137434,0.11869 0.04998,0.0812 0.06247,0.17492 0.01874,0.0875 0.01874,0.18116 h 0.49976 q 0,-0.17491 -0.03124,-0.34983 -0.03124,-0.17492 -0.131187,-0.32484 -0.09995,-0.14993 -0.268621,-0.21865 -0.162422,-0.0687 -0.337338,-0.0687 -0.156175,0 -0.306103,0.0625 -0.143681,0.0625 -0.24988,0.18741 -0.09995,0.12494 -0.168669,0.26862 -0.06247,0.14369 -0.09995,0.29361 v -0.76213 h -0.49976 z" />
            <path
               id="path419"
               style="stroke-width:0.75"
               d="m 50.654662,-290.95002 q 0.212398,0 0.424796,-0.05 0.212398,-0.0437 0.393561,-0.16867 0.181163,-0.13119 0.281115,-0.32484 0.09995,-0.19991 0.112446,-0.41231 h -0.49976 q -0.0062,0.16243 -0.118693,0.29361 -0.112446,0.12494 -0.274868,0.16867 -0.156175,0.0437 -0.318597,0.0437 -0.162422,0 -0.318597,-0.0562 -0.149928,-0.0625 -0.256127,-0.18741 -0.09995,-0.13119 -0.137434,-0.28736 -0.03748,-0.15618 -0.03748,-0.3186 v -0.18116 h 1.974052 v -0.63095 q 0,-0.20615 -0.04373,-0.40606 -0.03748,-0.1999 -0.149928,-0.37482 -0.106199,-0.18116 -0.274868,-0.29985 -0.162422,-0.12494 -0.362326,-0.16867 -0.199904,-0.05 -0.406055,-0.05 -0.206151,0 -0.406055,0.05 -0.199904,0.0437 -0.368573,0.16867 -0.162422,0.11869 -0.274868,0.29985 -0.106199,0.17492 -0.149928,0.37482 -0.03748,0.19991 -0.03748,0.40606 v 0.81211 q 0,0.20615 0.03748,0.40605 0.04373,0.19991 0.156175,0.38107 0.112446,0.17492 0.281115,0.29986 0.168669,0.11869 0.368573,0.16242 0.199904,0.05 0.406055,0.05 z m -0.74964,-1.93033 v -0.18116 q 0,-0.16242 0.03748,-0.3186 0.03748,-0.15617 0.137434,-0.28111 0.09995,-0.13119 0.24988,-0.18741 0.156175,-0.0625 0.31235,-0.0625 0.162422,0 0.31235,0.0625 0.149928,0.0562 0.24988,0.18741 0.09995,0.12494 0.137434,0.28111 0.03748,0.15618 0.03748,0.3186 v 0.18116 z" />
            <path
               id="path421"
               style="stroke-width:0.75"
               d="m 53.477875,-291 h 0.574724 l 1.012014,-3.31091 h -0.524748 l -0.630947,2.20519 q -0.03748,0.13119 -0.07496,0.26862 -0.03123,0.13119 -0.06872,0.26238 -0.03748,-0.13119 -0.07496,-0.26238 -0.03123,-0.13743 -0.06872,-0.26862 l -0.6247,-2.20519 h -0.530995 z" />
            <path
               id="path423"
               style="stroke-width:0.75"
               d="m 58.918152,-291 h 2.18645 v -0.44978 h -0.799616 v -4.14177 H 59.00561 v 0.44979 h 0.799616 v 3.69198 h -0.887074 z" />
            <path
               id="path425"
               style="stroke-width:0.75"
               d="m 65.957657,-290.95002 q 0.199904,0 0.393561,-0.0562 0.199904,-0.0625 0.356079,-0.1999 0.156175,-0.13744 0.237386,-0.3186 V -291 h 0.49976 v -2.26766 q 0,-0.18741 -0.04998,-0.36233 -0.04373,-0.18116 -0.162422,-0.32484 -0.112446,-0.14993 -0.274868,-0.24363 -0.162422,-0.0937 -0.343585,-0.12494 -0.181163,-0.0375 -0.362326,-0.0375 -0.218645,0 -0.431043,0.05 -0.212398,0.0437 -0.393561,0.17492 -0.174916,0.13118 -0.274868,0.33109 -0.0937,0.1999 -0.0937,0.41855 v 0 h 0.49976 q 0,-0.16243 0.106199,-0.29361 0.106199,-0.13744 0.262374,-0.18117 0.162422,-0.05 0.324844,-0.05 0.174916,0 0.343585,0.0687 0.174916,0.0625 0.262374,0.23114 0.08746,0.16243 0.08746,0.34359 v 0.3186 h -0.568477 q -0.193657,0 -0.381067,0.025 -0.18741,0.025 -0.368573,0.1 -0.181163,0.0687 -0.331091,0.19365 -0.143681,0.12494 -0.212398,0.31235 -0.06247,0.18117 -0.06247,0.37482 0,0.19366 0.04998,0.38107 0.05622,0.18741 0.18741,0.33734 0.131187,0.14993 0.318597,0.2124 0.18741,0.0625 0.381067,0.0625 z m 0.18741,-0.44979 q -0.156175,0 -0.31235,-0.05 -0.149928,-0.0562 -0.231139,-0.19991 -0.08121,-0.14368 -0.08121,-0.29985 0,-0.11245 0.04998,-0.21865 0.04998,-0.1062 0.143681,-0.16867 0.09995,-0.0687 0.206151,-0.0999 0.112446,-0.0375 0.224892,-0.05 0.118693,-0.0125 0.231139,-0.0125 h 0.568477 v 0.37482 q 0,0.14993 -0.05622,0.29986 -0.04998,0.14368 -0.174916,0.24363 -0.118693,0.0999 -0.268621,0.14368 -0.143681,0.0375 -0.299856,0.0375 z" />
            <path
               id="path427"
               style="stroke-width:0.75"
               d="m 71.316722,-291 h 0.49976 v -2.06151 q 0,-0.15618 0.03124,-0.3061 0.03123,-0.15618 0.118693,-0.28737 0.0937,-0.13118 0.237386,-0.19365 0.143681,-0.0625 0.299856,-0.0625 0.156175,0 0.299856,0.0625 0.143681,0.0625 0.231139,0.19365 0.0937,0.13119 0.12494,0.28737 0.03123,0.14992 0.03123,0.3061 V -291 h 0.49976 v -2.06151 q 0,-0.18741 -0.02499,-0.36857 -0.02499,-0.18741 -0.09995,-0.35608 -0.07496,-0.17492 -0.206151,-0.31235 -0.12494,-0.13744 -0.299856,-0.19991 -0.174916,-0.0625 -0.362326,-0.0625 -0.18741,0 -0.37482,0.0687 -0.181163,0.0625 -0.31235,0.2124 -0.12494,0.14368 -0.193657,0.32484 v -0.55598 h -0.49976 z" />
            <path
               id="path429"
               style="stroke-width:0.75"
               d="m 74.533497,-291 h 2.18645 v -0.44978 h -0.799616 v -2.86113 h -1.299376 v 0.44978 h 0.799616 v 2.41135 h -0.887074 z m 1.093225,-3.89188 q 0.106199,0 0.199904,-0.0437 0.09995,-0.0437 0.143681,-0.13743 0.04998,-0.1 0.04998,-0.20616 0,-0.10619 -0.04998,-0.1999 -0.04373,-0.0999 -0.143681,-0.14368 -0.0937,-0.05 -0.199904,-0.05 -0.106199,0 -0.206151,0.05 -0.0937,0.0437 -0.137434,0.14368 -0.04373,0.0937 -0.04373,0.1999 0,0.1062 0.04373,0.20616 0.04373,0.0937 0.137434,0.13743 0.09995,0.0437 0.206151,0.0437 z" />
            <path
               id="path431"
               style="stroke-width:0.75"
               d="m 77.656567,-291 h 2.18645 v -0.44978 h -0.799616 v -4.14177 h -1.299376 v 0.44979 h 0.799616 v 3.69198 h -0.887074 z" />
            <path
               id="path433"
               style="stroke-width:0.75"
               d="m 80.923317,-289.99423 q 0.412302,-0.21865 0.737146,-0.56223 0.331092,-0.33734 0.54349,-0.75589 0.212398,-0.4248 0.293609,-0.88083 0.08746,-0.46228 0.08746,-0.9308 0,-0.46853 -0.08746,-0.9308 -0.08121,-0.46228 -0.293609,-0.88083 -0.212398,-0.41855 -0.54349,-0.75589 -0.324844,-0.34358 -0.737146,-0.56223 l -0.237386,0.39356 q 0.356079,0.19991 0.630947,0.49976 0.281115,0.29986 0.449785,0.66843 0.174916,0.36233 0.243633,0.76214 0.07496,0.3998 0.07496,0.80586 0,0.39981 -0.07496,0.79962 -0.06872,0.3998 -0.243633,0.76838 -0.16867,0.36857 -0.449785,0.66843 -0.274868,0.29985 -0.630947,0.49976 z" />
            <path
               id="path435"
               style="stroke-width:0.75"
               d="m 86.932071,-293.46757 h 2.37386 v -0.44978 h -2.37386 z m 0,1.13696 h 2.37386 v -0.44979 h -2.37386 z" />
            <path
               id="path437"
               style="stroke-width:0.75"
               d="m 94.065285,-290.95002 q 0.199904,0 0.393561,-0.0562 0.199904,-0.0625 0.356079,-0.1999 0.156175,-0.13744 0.237386,-0.3186 V -291 h 0.49976 v -2.26766 q 0,-0.18741 -0.04998,-0.36233 -0.04373,-0.18116 -0.162422,-0.32484 -0.112446,-0.14993 -0.274868,-0.24363 -0.162422,-0.0937 -0.343585,-0.12494 -0.181163,-0.0375 -0.362326,-0.0375 -0.218645,0 -0.431043,0.05 -0.212398,0.0437 -0.393561,0.17492 -0.174916,0.13118 -0.274868,0.33109 -0.0937,0.1999 -0.0937,0.41855 v 0 h 0.49976 q 0,-0.16243 0.106199,-0.29361 0.106199,-0.13744 0.262374,-0.18117 0.162422,-0.05 0.324844,-0.05 0.174916,0 0.343585,0.0687 0.174916,0.0625 0.262374,0.23114 0.08746,0.16243 0.08746,0.34359 v 0.3186 h -0.568477 q -0.193657,0 -0.381067,0.025 -0.18741,0.025 -0.368573,0.1 -0.181163,0.0687 -0.331091,0.19365 -0.143681,0.12494 -0.212398,0.31235 -0.06247,0.18117 -0.06247,0.37482 0,0.19366 0.04998,0.38107 0.05622,0.18741 0.18741,0.33734 0.131187,0.14993 0.318597,0.2124 0.18741,0.0625 0.381067,0.0625 z m 0.18741,-0.44979 q -0.156175,0 -0.31235,-0.05 -0.149928,-0.0562 -0.231139,-0.19991 -0.08121,-0.14368 -0.08121,-0.29985 0,-0.11245 0.04998,-0.21865 0.04998,-0.1062 0.143681,-0.16867 0.09995,-0.0687 0.206151,-0.0999 0.112446,-0.0375 0.224892,-0.05 0.118693,-0.0125 0.231139,-0.0125 h 0.568477 v 0.37482 q 0,0.14993 -0.05622,0.29986 -0.04998,0.14368 -0.174916,0.24363 -0.118693,0.0999 -0.268621,0.14368 -0.143681,0.0375 -0.299856,0.0375 z" />
            <path
               id="path439"
               style="stroke-width:0.75"
               d="m 99.518055,-291 h 2.186455 v -0.44978 h -0.79962 v -4.14177 h -1.299377 v 0.44979 h 0.799617 v 3.69198 h -0.887075 z" />
          </g>
        </g>
      </g>
    </g>
  </g>
</svg>
