<svg version="1.1" viewBox="0 0 717.3 502.6" xmlns="http://www.w3.org/2000/svg"><defs><clipPath id="clipPath18"><path d="m120.8 120.8h2242v3270h-2242z" clip-rule="evenodd"/></clipPath><clipPath id="clipPath94"><path d="m120.8 120.8h2242v3271h-2242z"/></clipPath><clipPath id="clipPath100"><path d="m120.8 120.8h2242v3270h-2242z"/></clipPath><clipPath id="clipPath106"><path d="m2309 874-15.63 15.63v728.8h15.63"/></clipPath><clipPath id="clipPath112"><path d="m2309 874.3h-15.63v728.8l15.63 15.63"/></clipPath><clipPath id="clipPath126"><path d="m120.8 120.8h2242v3271h-2242z"/></clipPath><clipPath id="clipPath132"><path d="m120.8 120.8h2242v3270h-2242z"/></clipPath><clipPath id="clipPath138"><path d="m224 1619 15.63-15.63v-728.8h-15.63"/></clipPath><clipPath id="clipPath144"><path d="m224 1618h15.63v-728.8l-15.63-15.63"/></clipPath><clipPath id="clipPath158"><path d="m2266 799.3h43.77v43.77h-43.77z" clip-rule="evenodd"/></clipPath><clipPath id="clipPath174"><path d="m120.8 120.8h2242v3270h-2242z" clip-rule="evenodd"/></clipPath></defs><g transform="translate(-38.67 -56.35)"><g transform="matrix(.32 0 0 .32 0 5.473e-5)" clip-path="url(#clipPath18)"><g transform="matrix(3.126 0 0 3.126 120.8 120.8)"><path d="m0.5 517.6v-315.2c-3e-8 -0.252 0.04821-0.4943 0.1446-0.7271 0.09642-0.2328 0.2337-0.4383 0.4119-0.6164 0.1782-0.1782 0.3836-0.3154 0.6164-0.4119 0.2328-0.09642 0.4751-0.1446 0.7271-0.1446h712.2c0.2519 0 0.4942 0.0482 0.727 0.1446 0.2327 0.0964 0.4382 0.2337 0.6164 0.4119 0.1781 0.1781 0.3154 0.3836 0.4118 0.6164 0.0964 0.2328 0.1446 0.4751 0.1447 0.7271v315.2c-6e-5 0.2519-0.0483 0.4943-0.1447 0.727-0.0964 0.2328-0.2337 0.4383-0.4119 0.6164s-0.3837 0.3154-0.6164 0.4119c-0.2328 0.0964-0.4752 0.1446-0.727 0.1446h-712.2c-0.252-6e-5 -0.4943-0.0483-0.7271-0.1446-0.2328-0.0964-0.4382-0.2337-0.6164-0.4119s-0.3154-0.3837-0.4119-0.6164c-0.09642-0.2328-0.1446-0.4752-0.1446-0.727z" fill="#eeeeec"/><path d="m0.5 517.6v-315.2c-3e-8 -0.252 0.04821-0.4943 0.1446-0.7271 0.09642-0.2328 0.2337-0.4383 0.4119-0.6164 0.1782-0.1782 0.3836-0.3154 0.6164-0.4119 0.2328-0.09642 0.4751-0.1446 0.7271-0.1446h712.2c0.2519 0 0.4942 0.0482 0.727 0.1446 0.2327 0.0964 0.4382 0.2337 0.6164 0.4119 0.1781 0.1781 0.3154 0.3836 0.4118 0.6164 0.0964 0.2328 0.1446 0.4751 0.1447 0.7271v315.2c-6e-5 0.2519-0.0483 0.4943-0.1447 0.727-0.0964 0.2328-0.2337 0.4383-0.4119 0.6164s-0.3837 0.3154-0.6164 0.4119c-0.2328 0.0964-0.4752 0.1446-0.727 0.1446h-712.2c-0.252-6e-5 -0.4943-0.0483-0.7271-0.1446-0.2328-0.0964-0.4382-0.2337-0.6164-0.4119s-0.3154-0.3837-0.4119-0.6164c-0.09642-0.2328-0.1446-0.4752-0.1446-0.727z" fill="none" stroke="#d3d7cf" stroke-miterlimit="10"/><text transform="translate(0,31)" fill="#4e9a06" font-family="Iosevka" font-size="16px" font-weight="bold"><tspan x="0 8.0000153 16.000031 24.000046 32.000061 40.000076 48.000092 56.000107 64.000122 72.000137" y="0">Definition</tspan></text><text transform="translate(88,31)" fill="#a40000" font-family="Iosevka" font-size="16px"><tspan x="0 8.0000153 16.000031 24.000046" y="0">udiv</tspan></text><g fill="#111111" font-family="Iosevka" font-size="16px"><text transform="translate(128 31)"><tspan x="0 8.0000153 16.000031 24.000046 32.000061" y="0">= {|</tspan></text><text transform="translate(16 51)"><tspan x="0 8.0000153 16.000031 24.000046 32.000061 40.000076 48.000092 56.000107 64.000122 72.000137 80.000153 88.000168 96.000183 104.0002 120.00023 128.00024" y="0"><tspan fill="#ce5c00">c_source</tspan> := "…";</tspan></text><text transform="translate(16 71)"><tspan x="0 8.0000153 16.000031 24.000046 32.000061 40.000076 48.000092 56.000107 64.000122 72.000137 80.000153 88.000168" y="0"><tspan fill="#ce5c00">riscv_elf</tspan> :=</tspan></text><text transform="translate(32 91)"><tspan x="0 8.0000153 16.000031 24.000046 32.000061 40.000076 48.000092 56.000107 64.000122 72.000137 80.000153 88.000168 96.000183 104.0002 112.00021 120.00023 128.00024 136.00026 144.00027 152.00029 160.00031 168.00032 176.00034 184.00035 192.00037 200.00038 208.0004 216.00041 224.00043 232.00043 240.00043 248.00043 256.00043 264.00043 272.00043 280.00043 288.00043 296.00043 304.00043 312.00043 320.00043 328.00043 336.00043 344.00043 352.00043 360.00043 368.00043 376.00043 384.00043 392.00043 400.00043 408.00043 416.00043 424.00043 432.00043 440.00043 448.00043 456.00043 464.00043 472.00043 480.00043 488.00043 496.00043 504.00043 512.00043 520.00043 528.00043 536.00043 544.00043 552.00043 560.00043 568.00043 576.00043 584.00043 592.00043 600.00043 608.00043 616.00043 624.00043 632.00043" y="0">[x7f; x45; x4c; x46; x01; x01; x01; x00; x00; x00; x00; x00; x00; x00; x00; x00;</tspan></text><text transform="translate(40 111)"><tspan x="0 8.0000153 16.000031 24.000046 32.000061 40.000076 48.000092 56.000107 64.000122 72.000137 80.000153 88.000168 96.000183 104.0002 112.00021 120.00023 128.00024 136.00026 144.00027 152.00029 160.00031 168.00032 176.00034 184.00035 192.00037 200.00038 208.0004 216.00041 224.00041 232.00041 240.00041 248.00041 256.00043 264.00043 272.00043 280.00043 288.00043 296.00043 304.00043 312.00043 320.00043 328.00043 336.00043 344.00043 352.00043 360.00043 368.00043 376.00043 384.00043 392.00043 400.00043 408.00043 416.00043 424.00043 432.00043 440.00043 448.00043 456.00043 464.00043 472.00043 480.00043 488.00043 496.00043 504.00043 512.00043 520.00043 528.00043 536.00043 544.00043 552.00043 560.00043 568.00043 576.00043 584.00043 592.00043 600.00043 608.00043 616.00043 624.00043" y="0">x02; x00; xf3; x00; x01; x00; x00; x00; x54; x00; x01; x00; x34; x00; x00; x00;</tspan></text><text transform="translate(40 131)"><tspan x="0 8.0000153 16.000031 24.000046 32.000061 40.000076 48.000092 56.000107 64.000122 72.000137 80.000153 88.000168 96.000183 104.0002 112.00021 120.00023 128.00024 136.00026 144.00027 152.00029 160.00031 168.00032 176.00034 184.00035 192.00037 200.00038 208.0004 216.00041 224.00041 232.00041 240.00041 248.00041 256.00043 264.00043 272.00043 280.00043 288.00043 296.00043 304.00043 312.00043 320.00043 328.00043 336.00043 344.00043 352.00043 360.00043 368.00043 376.00043 384.00043 392.00043 400.00043 408.00043 416.00043 424.00043 432.00043 440.00043 448.00043 456.00043 464.00043 472.00043 480.00043 488.00043 496.00043 504.00043 512.00043 520.00043 528.00043 536.00043 544.00043 552.00043 560.00043 568.00043 576.00043 584.00043 592.00043 600.00043 608.00043 616.00043 624.00043" y="0">x0c; x02; x00; x00; x00; x00; x00; x00; x34; x00; x20; x00; x01; x00; x28; x00;</tspan></text><text transform="translate(40 151)"><tspan x="0 8.0000153 16.000031 24.000046 32.000061 40.000076 48.000092 56.000107 64.000122 72.000137 80.000153 88.000168 96.000183 104.0002 112.00021 120.00023 128.00024 136.00026 144.00027 152.00029 160.00031 168.00032 176.00034 184.00035 192.00037 200.00038 208.0004 216.00041 224.00041 232.00041 240.00041 248.00041 256.00043 264.00043 272.00043 280.00043 288.00043 296.00043 304.00043 312.00043 320.00043 328.00043 336.00043 344.00043 352.00043 360.00043 368.00043 376.00043 384.00043 392.00043 400.00043 408.00043 416.00043 424.00043 432.00043 440.00043 448.00043 456.00043 464.00043 472.00043 480.00043 488.00043 496.00043 504.00043 512.00043 520.00043 528.00043 536.00043 544.00043 552.00043 560.00043 568.00043 576.00043 584.00043 592.00043 600.00043 616.00043 624.00043 632.00043 640.00043 648.00043 656.00043" y="0">x06; x00; x05; x00; x01; x00; x00; x00; x00; x00; x00; x00; x00; x00; x01; … ] |}.</tspan></text></g><g><text transform="translate(0,191)" fill="#4e9a06" font-family="Iosevka" font-size="16px" font-weight="bold"><tspan x="0 8.0000153 16.000031 24.000046 32.000061 40.000076 48.000092" y="0">Compute</tspan></text><text transform="translate(64 191)" fill="#111111" font-family="Iosevka" font-size="16px"><tspan x="0 8.0000153 16.000031 24.000046 32.000061 40.000076 48.000092 56.000107 64.000122 72.000137 80.000153 88.000168 96.000183 104.0002 112.00021 120.00023 128.00024" y="0">udiv.(riscv_elf).</tspan></text><path d="m204.5 186c-2e-5 -0.1989 0.038-0.3903 0.1142-0.574 0.0761-0.1838 0.1845-0.346 0.3252-0.4866 0.1406-0.1407 0.3028-0.249 0.4866-0.3252s0.3751-0.1142 0.574-0.1142h8c0.1989 0 0.3902 0.0381 0.574 0.1142 0.1838 0.0761 0.346 0.1845 0.4866 0.3252 0.1406 0.1406 0.249 0.3028 0.3252 0.4866 0.0761 0.1838 0.1142 0.3751 0.1142 0.574-2e-5 0.1989-0.0381 0.3902-0.1142 0.574-0.0761 0.1838-0.1845 0.346-0.3252 0.4866-0.1406 0.1406-0.3029 0.249-0.4866 0.3251-0.1838 0.0761-0.3751 0.1142-0.574 0.1142h-8c-0.1989-2e-5 -0.3903-0.0381-0.574-0.1142s-0.346-0.1845-0.4866-0.3252c-0.1407-0.1407-0.249-0.3029-0.3252-0.4866-0.07613-0.1838-0.1142-0.3751-0.1142-0.574z" fill="#babdb6"/></g><path d="m204.5 186c-2e-5 -0.1989 0.038-0.3903 0.1142-0.574 0.0761-0.1838 0.1845-0.346 0.3252-0.4866 0.1406-0.1407 0.3028-0.249 0.4866-0.3252s0.3751-0.1142 0.574-0.1142h8c0.1989 0 0.3902 0.0381 0.574 0.1142 0.1838 0.0761 0.346 0.1845 0.4866 0.3252 0.1406 0.1406 0.249 0.3028 0.3252 0.4866 0.0761 0.1838 0.1142 0.3751 0.1142 0.574-2e-5 0.1989-0.0381 0.3902-0.1142 0.574-0.0761 0.1838-0.1845 0.346-0.3252 0.4866-0.1406 0.1406-0.3029 0.249-0.4866 0.3251-0.1838 0.0761-0.3751 0.1142-0.574 0.1142h-8c-0.1989-2e-5 -0.3903-0.0381-0.574-0.1142s-0.346-0.1845-0.4866-0.3252c-0.1407-0.1407-0.249-0.3029-0.3252-0.4866-0.07613-0.1838-0.1142-0.3751-0.1142-0.574z" fill="none" stroke="#babdb6" stroke-miterlimit="10"/><g><path d="m9 508.6v-297.2c-1e-6 -0.3183 0.0609-0.6244 0.1827-0.9185 0.1218-0.294 0.2952-0.5536 0.5203-0.7786 0.225-0.225 0.4846-0.3984 0.7786-0.5202 0.294-0.1218 0.6002-0.1827 0.9184-0.1827h694.2c0.3182 0 0.6243 0.0609 0.9184 0.1826 0.294 0.1218 0.5536 0.2952 0.7787 0.5203 0.225 0.225 0.3984 0.4846 0.5202 0.7786 0.1218 0.294 0.1827 0.6002 0.1827 0.9184v297.2c-6e-5 0.3182-0.061 0.6243-0.1827 0.9184-0.1218 0.294-0.2952 0.5536-0.5202 0.7787-0.2251 0.225-0.4847 0.3984-0.7787 0.5202-0.2941 0.1218-0.6002 0.1827-0.9184 0.1828h-694.2c-0.3183-3e-5 -0.6244-0.061-0.9184-0.1828-0.294-0.1218-0.5536-0.2952-0.7786-0.5202-0.225-0.2251-0.3985-0.4846-0.5203-0.7787-0.1218-0.294-0.1827-0.6001-0.1827-0.9183z" fill="#d3d7cf"/><path d="m33 241h667v238h-667z" fill="#eeeeec"/><path d="m33 241h667v3h-667z" fill="#676965"/><path d="m33 244h667v2h-667z" fill="#babdb6"/><path d="m33 474h667v3h-667z" fill="#676965"/><path d="m33 477h667v2h-667z" fill="#babdb6"/></g></g></g><g transform="matrix(.32 0 0 .32 0 5.473e-5)"><g clip-path="url(#clipPath94)"><g clip-path="url(#clipPath100)"><g clip-path="url(#clipPath106)"><g clip-path="url(#clipPath112)"><g transform="matrix(3.126 0 0 3.126 120.8 120.8)"><path d="m695 241h3v238h-3z" fill="#676965"/><path d="m698 241h2v238h-2z" fill="#babdb6"/></g></g></g></g></g></g><g transform="matrix(.32 0 0 .32 0 5.473e-5)"><g clip-path="url(#clipPath126)"><g clip-path="url(#clipPath132)"><g clip-path="url(#clipPath138)"><g clip-path="url(#clipPath144)"><g transform="matrix(3.126 0 0 3.126 120.8 120.8)"><path d="m33 241h3v238h-3z" fill="#676965"/><path d="m36 241h2v238h-2z" fill="#babdb6"/></g></g></g></g></g></g><g transform="matrix(.32 0 0 .32 0 5.473e-5)"><g clip-path="url(#clipPath158)"><g transform="matrix(11.82 0 0 11.82 2266 799.3)"><path d="m0.794 0.934h2.115m-2.115 0.529h1.455m-1.455 0.529h1.852" fill-rule="evenodd"/><path d="m0.794 0.934h2.115m-2.115 0.529h1.455m-1.455 0.529h1.852" fill="none" stroke="#000" stroke-miterlimit="10" stroke-width=".2644"/><path d="m0.132 0.14v2.646h0.794v0.661l0.926-0.661h1.72v-2.646z" fill="none" stroke="#000" stroke-miterlimit="10" stroke-width=".2644"/></g></g></g><g transform="matrix(.32 0 0 .32 0 5.473e-5)"><g clip-path="url(#clipPath174)"><g transform="matrix(3.126 0 0 3.126 120.8 120.8)" font-family="Iosevka" font-size="16px"><g><text transform="translate(17,232)" fill="#111111"><tspan x="0" y="0">=</tspan></text><text transform="translate(42,265)" fill="#2e3436"><tspan x="0 8.0000153 16.000031 24.000046 32.000061 40.000076 48.000092 56.000107" y="0">00010054</tspan></text><text transform="translate(114,265)" fill="#000000"><tspan x="0" y="0">&lt;</tspan></text><text transform="translate(122,265)" fill="#a40000"><tspan x="0 8.0000153 16.000031 24.000046" y="0">udiv</tspan></text><text transform="translate(154,265)" fill="#000000"><tspan x="0 8.0000153" y="0">&gt;</tspan></text></g><text transform="translate(66,285)" fill="#3465a4" font-weight="bold"><tspan x="0 8.0000153 16.000031 24.000046 32.000061 40.000076" y="0">10054:</tspan></text><g><text transform="translate(170 285)" fill="#2e3436"><tspan x="0 8.0000153 16.000031 24.000046 32.000061 40.000076 48.000092 56.000107 64.000122 72.000137 80.000153 88.000168" y="0">00 05 07 93 </tspan></text><text transform="translate(361.9 285)" fill="#a40000"><tspan x="0 8.0000153" y="0">mv</tspan></text><text transform="translate(425.9 285)" fill="#ce5c00"><tspan x="0 8.0000153" y="0">a5</tspan></text><text transform="translate(441.9 285)" fill="#000000"><tspan x="0" y="0">,</tspan></text><text transform="translate(449.9 285)" fill="#ce5c00"><tspan x="0 8.0000153" y="0">a0</tspan></text></g><text transform="translate(66,305)" fill="#3465a4" font-weight="bold"><tspan x="0 8.0000153 16.000031 24.000046 32.000061 40.000076" y="0">10058:</tspan></text><g><text transform="translate(170 305)" fill="#2e3436"><tspan x="0 8.0000153 16.000031 24.000046 32.000061 40.000076 48.000092 56.000107 64.000122 72.000137 80.000153 88.000168" y="0">ff 01 01 13 </tspan></text><text transform="translate(361.9 305)" fill="#a40000"><tspan x="0 8.0000153 16.000031 24.000046" y="0">addi</tspan></text><text transform="translate(425.9 305)" fill="#ce5c00"><tspan x="0 8.0000153" y="0">sp</tspan></text><text transform="translate(441.9 305)" fill="#000000"><tspan x="0" y="0">,</tspan></text><text transform="translate(449.9 305)" fill="#ce5c00"><tspan x="0 8.0000153" y="0">sp</tspan></text><text transform="translate(465.9 305)" fill="#000000"><tspan x="0 8.0000153" y="0">,-</tspan></text><text transform="translate(481.9 305)" fill="#2e3436"><tspan x="0 8.0000153" y="0">16</tspan></text></g><text transform="translate(66,325)" fill="#3465a4" font-weight="bold"><tspan x="0 8.0000153 16.000031 24.000046 32.000061 40.000076" y="0">1005c:</tspan></text><g><text transform="translate(170 325)" fill="#2e3436"><tspan x="0 8.0000153 16.000031 24.000046 32.000061 40.000076 48.000092 56.000107 64.000122 72.000137 80.000153 88.000168" y="0">00 00 05 13 </tspan></text><text transform="translate(361.9 325)" fill="#a40000"><tspan x="0 8.0000153" y="0">li</tspan></text><text transform="translate(425.9 325)" fill="#ce5c00"><tspan x="0 8.0000153" y="0">a0</tspan></text><text transform="translate(441.9 325)" fill="#000000"><tspan x="0" y="0">,</tspan></text><text transform="translate(449.9 325)" fill="#2e3436"><tspan x="0" y="0">0</tspan></text></g><text transform="translate(66,345)" fill="#3465a4" font-weight="bold"><tspan x="0 8.0000153 16.000031 24.000046 32.000061 40.000076" y="0">10060:</tspan></text><g><text transform="translate(170 345)" fill="#2e3436"><tspan x="0 8.0000153 16.000031 24.000046 32.000061 40.000076 48.000092 56.000107 64.000122 72.000137 80.000153 88.000168" y="0">00 b7 f8 63 </tspan></text><text transform="translate(361.9 345)" fill="#a40000"><tspan x="0 8.0000153 16.000031 24.000046" y="0">bgeu</tspan></text><text transform="translate(425.9 345)" fill="#ce5c00"><tspan x="0 8.0000153" y="0">a5</tspan></text><text transform="translate(441.9 345)" fill="#000000"><tspan x="0" y="0">,</tspan></text><text transform="translate(449.9 345)" fill="#ce5c00"><tspan x="0 8.0000153" y="0">a1</tspan></text><text transform="translate(465.9 345)" fill="#000000"><tspan x="0" y="0">,</tspan></text><text transform="translate(473.9 345)" fill="#2e3436"><tspan x="0 8.0000153 16.000031 24.000046 32.000061" y="0">10070</tspan></text><text transform="translate(521.9 345)" fill="#000000"><tspan x="0" y="0">&lt;</tspan></text><text transform="translate(529.9 345)" fill="#ce5c00"><tspan x="0 8.0000153 16.000031 24.000046" y="0">udiv</tspan></text><text transform="translate(561.9 345)" fill="#000000"><tspan x="0" y="0">+</tspan></text><text transform="translate(569.9 345)" fill="#2e3436"><tspan x="0 8.0000153 16.000031 24.000046" y="0">0x1c</tspan></text><text transform="translate(601.9 345)" fill="#000000"><tspan x="0" y="0">&gt;</tspan></text></g><text transform="translate(66,365)" fill="#3465a4" font-weight="bold"><tspan x="0 8.0000153 16.000031 24.000046 32.000061 40.000076" y="0">10064:</tspan></text><g><text transform="translate(170 365)" fill="#2e3436"><tspan x="0 8.0000153 16.000031 24.000046 32.000061 40.000076 48.000092 56.000107 64.000122 72.000137 80.000153 88.000168" y="0">00 07 85 93 </tspan></text><text transform="translate(361.9 365)" fill="#a40000"><tspan x="0 8.0000153" y="0">mv</tspan></text><text transform="translate(425.9 365)" fill="#ce5c00"><tspan x="0 8.0000153" y="0">a1</tspan></text><text transform="translate(441.9 365)" fill="#000000"><tspan x="0" y="0">,</tspan></text><text transform="translate(449.9 365)" fill="#ce5c00"><tspan x="0 8.0000153" y="0">a5</tspan></text></g><text transform="translate(66,385)" fill="#3465a4" font-weight="bold"><tspan x="0 8.0000153 16.000031 24.000046 32.000061 40.000076" y="0">10068:</tspan></text><g><text transform="translate(170 385)" fill="#2e3436"><tspan x="0 8.0000153 16.000031 24.000046 32.000061 40.000076 48.000092 56.000107 64.000122 72.000137 80.000153 88.000168" y="0">01 01 01 13 </tspan></text><text transform="translate(361.9 385)" fill="#a40000"><tspan x="0 8.0000153 16.000031 24.000046" y="0">addi</tspan></text><text transform="translate(425.9 385)" fill="#ce5c00"><tspan x="0 8.0000153" y="0">sp</tspan></text><text transform="translate(441.9 385)" fill="#000000"><tspan x="0" y="0">,</tspan></text><text transform="translate(449.9 385)" fill="#ce5c00"><tspan x="0 8.0000153" y="0">sp</tspan></text><text transform="translate(465.9 385)" fill="#000000"><tspan x="0" y="0">,</tspan></text><text transform="translate(473.9 385)" fill="#2e3436"><tspan x="0 8.0000153" y="0">16</tspan></text></g><text transform="translate(66,405)" fill="#3465a4" font-weight="bold"><tspan x="0 8.0000153 16.000031 24.000046 32.000061 40.000076" y="0">1006c:</tspan></text><text transform="translate(170 405)" fill="#2e3436"><tspan x="0 8.0000153 16.000031 24.000046 32.000061 40.000076 48.000092 56.000107 64.000122 72.000137 80.000153 88.000168" y="0">00 00 80 67 </tspan></text><text transform="translate(361.9 405)" fill="#a40000"><tspan x="0 8.0000153 16.000031" y="0">ret</tspan></text><text transform="translate(66,425)" fill="#3465a4" font-weight="bold"><tspan x="0 8.0000153 16.000031 24.000046 32.000061 40.000076" y="0">10070:</tspan></text><g><text transform="translate(170 425)" fill="#2e3436"><tspan x="0 8.0000153 16.000031 24.000046 32.000061 40.000076 48.000092 56.000107 64.000122 72.000137 80.000153 88.000168" y="0">40 b7 87 b3 </tspan></text><text transform="translate(361.9 425)" fill="#a40000"><tspan x="0 8.0000153 16.000031" y="0">sub</tspan></text><text transform="translate(425.9 425)" fill="#ce5c00"><tspan x="0 8.0000153" y="0">a5</tspan></text><text transform="translate(441.9 425)" fill="#000000"><tspan x="0" y="0">,</tspan></text><text transform="translate(449.9 425)" fill="#ce5c00"><tspan x="0 8.0000153" y="0">a5</tspan></text><text transform="translate(465.9 425)" fill="#000000"><tspan x="0" y="0">,</tspan></text><text transform="translate(473.9 425)" fill="#ce5c00"><tspan x="0 8.0000153" y="0">a1</tspan></text></g><text transform="translate(66,445)" fill="#3465a4" font-weight="bold"><tspan x="0 8.0000153 16.000031 24.000046 32.000061 40.000076" y="0">10074:</tspan></text><g><text transform="translate(170 445)" fill="#2e3436"><tspan x="0 8.0000153 16.000031 24.000046 32.000061 40.000076 48.000092 56.000107 64.000122 72.000137 80.000153 88.000168" y="0">00 15 05 13 </tspan></text><text transform="translate(361.9 445)" fill="#a40000"><tspan x="0 8.0000153 16.000031 24.000046" y="0">addi</tspan></text><text transform="translate(425.9 445)" fill="#ce5c00"><tspan x="0 8.0000153" y="0">a0</tspan></text><text transform="translate(441.9 445)" fill="#000000"><tspan x="0" y="0">,</tspan></text><text transform="translate(449.9 445)" fill="#ce5c00"><tspan x="0 8.0000153" y="0">a0</tspan></text><text transform="translate(465.9 445)" fill="#000000"><tspan x="0" y="0">,</tspan></text><text transform="translate(473.9 445)" fill="#2e3436"><tspan x="0" y="0">1</tspan></text></g><text transform="translate(66,465)" fill="#3465a4" font-weight="bold"><tspan x="0 8.0000153 16.000031 24.000046 32.000061 40.000076" y="0">10078:</tspan></text><g><text transform="translate(170 465)" fill="#2e3436"><tspan x="0 8.0000153 16.000031 24.000046 32.000061 40.000076 48.000092 56.000107 64.000122 72.000137 80.000153 88.000168" y="0">fe 9f f0 6f </tspan></text><text transform="translate(361.9 465)" fill="#a40000"><tspan x="0" y="0">j</tspan></text><text transform="translate(425.9 465)" fill="#2e3436"><tspan x="0 8.0000153 16.000031 24.000046 32.000061" y="0">10060</tspan></text><text transform="translate(473.9 465)" fill="#000000"><tspan x="0" y="0">&lt;</tspan></text><text transform="translate(481.9 465)" fill="#ce5c00"><tspan x="0 8.0000153 16.000031 24.000046" y="0">udiv</tspan></text><text transform="translate(513.9 465)" fill="#000000"><tspan x="0" y="0">+</tspan></text><text transform="translate(521.9 465)" fill="#2e3436"><tspan x="0 8.0000153 16.000031" y="0">0xc</tspan></text><text transform="translate(545.9 465)" fill="#000000"><tspan x="0" y="0">&gt;</tspan></text><text transform="translate(17,498)" fill="#111111"><tspan x="0 8.0000153 16.000031 24.000046 32.000061 40.000076 48.000092 56.000107 64.000122 72.000137 80.000153 88.000168 96.000183 104.0002 112.00021 120.00023" y="0">: list Byte.byte</tspan></text></g></g></g></g></g></svg>
